<svg width="24" height="16" viewBox="0 0 24 16" fill="none" xmlns="http://www.w3.org/2000/svg">
<g id="Left 1">
<path id="Vector" d="M22.6667 8.74998C23.0809 8.74998 23.4167 8.41419 23.4167 7.99998C23.4167 7.58576 23.0809 7.24998 22.6667 7.24998V8.74998ZM1.33334 7.24998C0.919131 7.24998 0.583344 7.58576 0.583344 7.99998C0.583344 8.41419 0.919131 8.74998 1.33334 8.74998V7.24998ZM6.13872 15.1993C6.43291 15.4909 6.90778 15.4888 7.19937 15.1946C7.49095 14.9004 7.48883 14.4255 7.19464 14.134L6.13872 15.1993ZM4.31605 12.3369L4.84401 11.8042L4.31605 12.3369ZM4.31605 3.66306L3.78809 3.13037V3.13037L4.31605 3.66306ZM7.19464 1.866C7.48883 1.57442 7.49095 1.09955 7.19937 0.805354C6.90779 0.511157 6.43292 0.509039 6.13872 0.800622L7.19464 1.866ZM1.35986 8.41776L0.615882 8.51259L0.615882 8.51259L1.35986 8.41776ZM1.35986 7.5822L0.615883 7.48737L0.615882 7.48737L1.35986 7.5822ZM22.6667 7.24998H1.33334V8.74998H22.6667V7.24998ZM7.19464 14.134L4.84401 11.8042L3.78809 12.8696L6.13872 15.1993L7.19464 14.134ZM4.84401 4.19575L7.19464 1.866L6.13872 0.800622L3.78809 3.13037L4.84401 4.19575ZM4.84401 11.8042C3.89419 10.8628 3.22765 10.2006 2.77388 9.63558C2.32961 9.08238 2.15134 8.69554 2.10384 8.32293L0.615882 8.51259C0.712708 9.27223 1.07524 9.916 1.60434 10.5748C2.12394 11.2218 2.86333 11.953 3.78809 12.8696L4.84401 11.8042ZM3.78809 3.13037C2.86333 4.04691 2.12394 4.77814 1.60434 5.42513C1.07524 6.08396 0.712708 6.72773 0.615883 7.48737L2.10384 7.67703C2.15134 7.30442 2.32961 6.91758 2.77388 6.36438C3.22765 5.79935 3.89419 5.13713 4.84401 4.19575L3.78809 3.13037ZM2.10384 8.32293C2.07651 8.10848 2.07651 7.89148 2.10384 7.67703L0.615882 7.48737C0.572497 7.82775 0.572497 8.1722 0.615882 8.51259L2.10384 8.32293Z" fill="#13783E"/>
</g>
</svg>
