<svg width="24" height="24" viewBox="0 0 24 24" fill="none" xmlns="http://www.w3.org/2000/svg">
<g id="Hicon / Linear / Tick Circle">
<g id="Tick Circle">
<g id="Vector">
<path d="M22 12C22 17.5228 17.5228 22 12 22C6.47715 22 2 17.5228 2 12C2 6.47715 6.47715 2 12 2C17.5228 2 22 6.47715 22 12Z" fill="#13783E"/>
<path d="M17 9L13.6308 12.7632C12.2957 14.2544 11.6282 15 10.75 15C9.8718 15 9.20425 14.2544 7.86917 12.7632L7 11.7924M22 12C22 17.5228 17.5228 22 12 22C6.47715 22 2 17.5228 2 12C2 6.47715 6.47715 2 12 2C17.5228 2 22 6.47715 22 12Z" stroke="#E7F2EC" stroke-linecap="round"/>
</g>
</g>
</g>
</svg>
