<svg width="32" height="39" viewBox="0 0 32 39" fill="none" xmlns="http://www.w3.org/2000/svg">
<g id="apple">
<path id="Vector" d="M29.4213 8.00527C26.6693 5.04813 21.9174 3.78323 18.5329 4.15928C17.8492 4.22766 16.6868 4.43278 15.4732 4.67208C14.9262 4.77464 14.3622 4.89429 13.8152 4.99685C13.3366 5.08232 12.875 5.18488 12.4648 5.27035C10.5674 5.6464 9.61022 5.83442 8.85812 6.05663C5.78133 6.9113 3.337 7.59503 1.86698 9.6804C1.16616 10.6718 0.909759 11.6803 0.533707 13.1162C0.0550961 14.9451 0.0209085 16.4151 0.00381528 17.116C-0.0474645 19.6458 0.379865 24.8934 3.64468 30.688C5.26854 33.5597 6.07192 34.9955 7.9009 36.2262C11.1144 38.4142 14.8066 38.192 17.9346 38.021C21.0285 37.8501 23.1481 37.7134 25.2335 36.3801C28.4641 34.2605 29.3529 30.5855 30.3102 26.3121C31.9511 18.9791 33.4553 12.3299 29.4213 8.00527Z" fill="#DB3B0F"/>
<path id="Vector_2" d="M16.157 1.32175C16.157 1.32175 15.4903 2.46699 15.5074 3.50968C15.5074 3.74899 15.5074 4.17632 15.4732 4.67203C14.9263 4.77459 14.3622 4.89424 13.8152 4.9968C13.969 2.97979 14.704 1.06535 14.704 1.06535L15.2681 0.877319L16.157 1.32175Z" fill="#062614"/>
<path id="Vector_3" d="M4.84125 10.2616C3.47379 11.5265 2.90971 13.3896 2.90971 13.3896C2.10633 16.1075 2.37982 20.056 4.10624 20.7739C4.49939 20.9448 5.06346 20.9619 5.45661 20.7226C5.96941 20.415 6.19162 19.7312 6.2429 18.227C6.34546 15.6801 5.78138 15.4237 5.93522 14.0221C6.20871 11.5094 8.22572 10.2274 7.71292 9.59492C7.38815 9.18468 6.34546 9.40689 5.79847 9.61201C5.35405 9.81713 5.04637 10.0735 4.84125 10.2616Z" fill="white"/>
</g>
</svg>
