<svg width="32" height="39" viewBox="0 0 32 39" fill="none" xmlns="http://www.w3.org/2000/svg">
<g id="Frame 163" clip-path="url(#clip0_180_1587)">
<g id="banana">
<path id="Vector" d="M0.492703 34.6571C0.725697 35.3561 0.723424 35.2826 1.60164 35.671C3.91964 36.6866 4.88083 37.4274 5.73514 37.6365C5.73514 37.6365 8.47732 38.3116 11.0522 38.2101C15.3656 38.0308 21.6206 36.37 25.1514 32.4688C29.5425 27.6118 33.1927 18.979 30.343 12.8674C29.0705 10.1371 25.2351 6.68999 25.9998 3.4639C26.1969 2.63348 26.8844 0.948369 26.2511 0.566018C26.2033 0.542122 25.9644 0.41069 25.6418 0.327051C25.5581 0.303153 25.0405 0.291197 24.8254 0.327042C24.2101 0.416656 24.2015 0.446916 23.8311 2.43036C23.5742 3.77456 23.4547 4.44368 23.4129 4.83201C22.8633 10.3522 19.8139 12.6034 18.6788 15.8056C18.0396 17.6039 15.3691 24.4802 8.72577 28.5666C5.20694 30.7352 5.63358 32.9468 3.1005 32.4688C2.41347 32.3434 1.75326 32.0822 0.934795 32.8768C0.480753 33.3069 0.301528 34.0597 0.492703 34.6571Z" fill="#EFC12E"/>
</g>
</g>
<defs>
<clipPath id="clip0_180_1587">
<rect width="32" height="38.8436" fill="white" transform="translate(0 0.0782471)"/>
</clipPath>
</defs>
</svg>
