<svg width="351" height="322" viewBox="0 0 351 322" fill="none" xmlns="http://www.w3.org/2000/svg">
<path d="M203.209 258.1C201.834 260.932 199.132 262.691 196.158 262.691C192.63 262.691 189.572 260.255 188.549 256.629L185.46 245.686L184.972 218.438C184.936 216.416 184.107 214.488 182.697 213.148C181.288 211.807 179.407 211.163 177.532 211.363L160.563 213.251L151.8 204.818L155.494 186.855L174.517 178.784L206.26 183.897L218.923 201.593C219.213 202.009 226.629 209.852 226.629 209.852L203.209 258.1Z" fill="#FCF3D5"/>
<path d="M289.025 192.158C287.815 193.78 287.31 195.885 287.642 197.933L287.842 199.174L276.188 190.281C275.039 189.405 273.688 188.941 272.283 188.941C269.74 188.941 267.438 190.446 266.276 192.872L261.019 203.888L249.302 185.712C248.795 184.926 248.159 184.265 247.41 183.747L232.81 173.631C231.716 172.873 230.451 172.472 229.15 172.472C227.222 172.472 225.383 173.359 224.102 174.905L223.573 175.544C221.202 178.409 221.322 182.777 223.845 185.488L230.759 192.913L223.021 195.721L211.545 179.307V172.517C211.545 169.051 209.245 166.058 206.076 165.398L191.936 162.463L182.7 155.52C180.819 154.105 178.326 153.819 176.207 154.777L167.066 158.911L159.832 162.483L159.101 157.48L167.551 152.224C168.006 151.943 168.431 151.603 168.818 151.21L177.7 142.174C179.663 140.178 180.327 137.127 179.393 134.402L176.892 127.2L190.694 111.333L205.642 119.604C206.593 120.13 207.662 120.408 208.733 120.408C209.775 120.408 210.818 120.143 211.752 119.643L229.936 109.879C230.867 109.377 231.689 108.641 232.314 107.747L252.852 78.3032L261.18 78.5772L260.699 79.977C259.937 82.2006 260.233 84.6862 261.494 86.6276C262.912 88.8109 265.299 90.0108 267.839 89.683L333.767 81.187C334.134 81.1395 334.505 81.1158 334.87 81.1158C339.758 81.1158 343.819 85.3966 343.923 90.6574L344.196 104.411L344.195 116.963L335.411 105.814C334.125 104.181 332.251 103.244 330.27 103.244C327.302 103.244 324.709 105.281 323.818 108.313L322.741 112.039L315.08 115.503C312.957 116.463 311.451 118.49 311.052 120.925L310.129 126.535C309.581 129.867 311.222 133.126 314.119 134.461L320.819 137.491L316.374 153.769L305.343 161.059C302.341 163.043 301.267 167.092 302.843 170.477L307.802 181.046L300.735 189.103L293.97 189.448C292.038 189.548 290.236 190.536 289.025 192.158Z" fill="#FEEEEA"/>
<path fill-rule="evenodd" clip-rule="evenodd" d="M204.744 176.269L175.53 171.563C174.354 171.37 173.15 171.52 172.046 171.989L152.996 180.064C150.908 180.95 149.371 182.883 148.885 185.236L145.161 203.236C144.632 205.785 145.428 208.453 147.234 210.198L156.014 218.685C157.43 220.053 159.324 220.714 161.22 220.508L178.172 218.582L178.66 245.83C178.672 246.497 178.77 247.158 178.949 247.794L182.041 258.752C183.939 265.48 189.613 270 196.16 270C201.678 270 206.691 266.735 209.242 261.48L232.662 213.233C234.056 210.361 233.493 206.807 231.293 204.59L228.241 201.519L223.021 195.721L211.545 179.307L204.744 176.269ZM196.158 262.691C199.132 262.691 201.834 260.932 203.209 258.1L226.629 209.852C226.629 209.852 219.213 202.009 218.923 201.593L206.26 183.897L174.517 178.784L155.494 186.855L151.8 204.818L160.563 213.251L177.532 211.363C179.407 211.163 181.288 211.807 182.697 213.148C184.107 214.488 184.936 216.416 184.972 218.438L185.46 245.686L188.549 256.629C189.572 260.255 192.63 262.691 196.158 262.691Z" fill="#FCF3D5"/>
<path d="M294.296 196.745L301.06 196.4C302.812 196.31 304.441 195.506 305.647 194.136L312.748 186.061C314.687 183.857 315.142 180.553 313.878 177.84L308.91 167.281L319.941 159.991C321.364 159.05 322.408 157.583 322.88 155.862L327.346 139.553C328.31 136.033 326.669 132.289 323.528 130.844L316.829 127.806L317.721 122.236L325.38 118.773C327.209 117.947 328.601 116.307 329.199 114.273L330.278 110.608L339.094 121.797C340.383 123.432 342.25 124.37 344.218 124.37C347.957 124.37 351 121.115 351 117.112L350.999 104.334L350.725 90.503C350.543 81.2993 343.431 73.8114 334.871 73.8114C334.236 73.8114 333.592 73.8525 332.958 73.9347L267.113 82.4198L267.564 81.103C268.309 78.9315 268.039 76.486 266.84 74.5638C265.642 72.6407 263.64 71.439 261.488 71.3504L253.114 71.0043C250.904 70.9222 248.773 72.0097 247.452 73.8991L226.89 103.351L208.757 113.113L193.809 104.842C192.857 104.316 191.789 104.038 190.719 104.038C188.86 104.038 187.063 104.873 185.792 106.33L171.93 122.208C170.172 124.222 169.631 127.084 170.521 129.675L173.023 136.874L164.15 145.903L155.693 151.161C153.278 152.664 151.984 155.549 152.399 158.513L153.106 163.571C153.597 167.092 156.469 169.75 159.784 169.749C160.741 169.749 161.673 169.533 162.554 169.108L169.783 165.613L178.8 161.509L188.035 168.451C188.818 169.041 189.691 169.438 190.626 169.631L204.744 172.521V176.269L211.545 179.307V172.517C211.545 169.051 209.245 166.058 206.076 165.398L191.936 162.463L182.7 155.52C180.819 154.105 178.326 153.819 176.207 154.777L167.066 158.911L159.832 162.483L159.101 157.48L167.551 152.224C168.006 151.943 168.431 151.603 168.818 151.21L177.7 142.174C179.663 140.178 180.327 137.127 179.393 134.402L176.892 127.2L190.694 111.333L205.642 119.604C206.593 120.13 207.662 120.408 208.733 120.408C209.775 120.408 210.818 120.143 211.752 119.643L229.936 109.879C230.867 109.377 231.689 108.641 232.314 107.747L252.852 78.3032L261.18 78.5772L260.699 79.977C259.937 82.2006 260.233 84.6862 261.494 86.6276C262.912 88.8109 265.299 90.0108 267.839 89.683L333.767 81.187C334.134 81.1395 334.505 81.1158 334.87 81.1158C339.758 81.1158 343.819 85.3966 343.923 90.6574L344.196 104.411L344.195 116.963L335.411 105.814C334.125 104.181 332.251 103.244 330.27 103.244C327.302 103.244 324.709 105.281 323.818 108.313L322.741 112.039L315.08 115.503C312.957 116.463 311.451 118.49 311.052 120.925L310.129 126.535C309.581 129.867 311.222 133.126 314.119 134.461L320.819 137.491L316.374 153.769L305.343 161.059C302.341 163.043 301.267 167.092 302.843 170.477L307.802 181.046L300.735 189.103L293.97 189.448C292.038 189.548 290.236 190.536 289.025 192.158C287.815 193.78 287.31 195.885 287.642 197.933L287.842 199.174L276.188 190.281C275.039 189.405 273.688 188.941 272.283 188.941C269.74 188.941 267.438 190.446 266.276 192.872L261.019 203.888L249.302 185.712C248.795 184.926 248.159 184.265 247.41 183.747L232.81 173.631C231.716 172.873 230.451 172.472 229.15 172.472C227.222 172.472 225.383 173.359 224.102 174.905L223.573 175.544C221.202 178.409 221.322 182.777 223.845 185.488L230.759 192.913L223.021 195.721L228.241 201.519L232.989 199.819C235.225 199.018 236.883 197.069 237.424 194.606C237.966 192.143 237.294 189.603 235.628 187.814L228.658 180.402L229.121 179.773L243.707 189.874L255.457 208.101C256.718 210.057 258.791 211.225 261.004 211.225C263.546 211.225 265.847 209.719 267.011 207.294L272.248 196.24L284.004 205.21C285.162 206.094 286.51 206.562 287.902 206.562C289.906 206.561 291.801 205.609 293.101 203.949C294.375 202.323 294.909 200.175 294.566 198.058L294.296 196.745Z" fill="#FEEEEA"/>
<path d="M324.047 305.808L307.068 308.745L302.178 297.188C300.11 292.303 295.332 289.146 290.005 289.146C289.462 289.146 288.913 289.179 288.364 289.249L257.31 293.233L260.386 266.121L296.938 244.202L301.069 249.34C303.589 252.475 307.348 254.271 311.381 254.271C315.751 254.271 319.808 252.143 322.283 248.556L337.71 277.629L324.047 305.808Z" fill="#F5F7D5"/>
<path fill-rule="evenodd" clip-rule="evenodd" d="M349.486 271.551L333.981 242.243C331.69 237.912 327.208 235.223 322.285 235.223C317.911 235.223 313.845 237.363 311.374 240.963L307.328 235.931C304.807 232.796 301.047 231 297.009 231C294.618 231 292.269 231.647 290.216 232.874L253.538 254.768C250.038 256.855 247.672 260.512 247.208 264.546L244.085 291.732C243.659 295.45 244.849 299.18 247.349 301.97C250.221 305.173 254.47 306.805 258.849 306.263L289.911 302.329L294.833 313.957C296.899 318.843 301.678 322 307.005 322H307.007C307.764 322 308.526 321.934 309.273 321.805L326.326 318.855C330.509 318.135 334.109 315.432 335.959 311.63L349.69 283.397C351.506 279.658 351.431 275.229 349.486 271.551ZM307.068 308.745L324.047 305.808L337.71 277.629L322.283 248.556C319.808 252.143 315.751 254.271 311.381 254.271C307.348 254.271 303.589 252.475 301.069 249.34L296.938 244.202L260.386 266.121L257.31 293.233L288.364 289.249C288.913 289.179 289.462 289.146 290.005 289.146C295.332 289.146 300.11 292.303 302.178 297.188L307.068 308.745Z" fill="#F5F7D5"/>
<path d="M54.2236 153.613L47.4942 123.953L59.1061 95.9209C59.6024 94.722 59.8364 93.4083 59.7835 92.1199L58.4298 59.32C58.2872 55.8962 56.1924 52.941 53.0941 51.7906L35.5877 45.2904L51.9945 24.334L67.8186 17.9347L86.3607 39.4822C86.5704 39.7252 86.7933 39.9554 87.0197 40.1627L114.46 65.4229C116.378 67.1864 119.05 67.9073 121.609 67.3545L130.216 65.4133L131.297 75.5301L110.617 82.4968C108.383 83.2492 106.522 84.9398 105.51 87.1353C104.498 89.3309 104.414 91.8601 105.279 94.0735L110.189 106.642C111.176 109.167 113.215 110.987 115.787 111.622C118.357 112.262 121.027 111.618 123.111 109.857L134.472 100.255L141.341 125.689L122.407 129.618C121.939 129.714 121.472 129.854 121.012 130.036L84.4348 144.644C84.4348 144.644 75.6368 141.644 75.5899 141.629C72.8955 140.758 69.9252 141.518 67.8382 143.611C65.6941 145.762 64.8499 148.9 65.6354 151.802L69.716 166.877L54.2236 153.613Z" fill="#F3F9EC"/>
<path d="M117.989 246.474L79.1671 265.488C77.0349 266.533 75.3933 268.457 74.6632 270.768L70.037 285.405L65.9271 272.629L82.2438 228.886C82.7809 227.444 82.9413 225.887 82.7041 224.381L79.3158 203.004L92.3028 192.657C93.6365 191.593 95.3723 191.279 96.945 191.816C97.8452 192.123 98.6301 192.693 99.2153 193.467L127.914 231.289L117.989 246.474Z" fill="#E7F2EC"/>
<path fill-rule="evenodd" clip-rule="evenodd" d="M88.0767 185.277L81.3778 177.545L74.0013 150.292L81.6199 152.891C83.436 153.511 85.4334 153.453 87.2438 152.731L123.852 138.125L142.794 134.194C145.099 133.715 147.14 132.252 148.393 130.177C149.646 128.102 150.01 125.584 149.391 123.267L142.546 97.656C141.803 94.8788 139.753 92.7121 137.1 91.8909C134.433 91.0578 131.526 91.6715 129.328 93.53L117.99 103.219L113.039 90.7387L133.719 83.7706C137.547 82.4797 140.023 78.5707 139.605 74.4766L138.569 64.2899C138.327 61.915 137.123 59.7587 135.266 58.3749C133.409 56.9897 131.037 56.4818 128.76 56.9778L120.134 58.8791L92.6997 33.6233L74.1569 12.0779C71.9078 9.46475 68.2349 8.58094 65.0174 9.87432L49.1249 16.2572C47.7289 16.8177 46.4912 17.7521 45.5474 18.9582L29.0572 40.0069C27.354 42.1795 26.7428 45.0618 27.4206 47.7165C28.0997 50.3706 29.9945 52.5073 32.4904 53.436L50.0381 59.9089L51.3967 92.6783L39.7847 120.71C39.0817 122.408 38.9146 124.319 39.3163 126.09L46.0424 155.79C46.4467 157.579 47.3808 159.143 48.7446 160.315L73.8404 181.812C74.0142 182.163 74.2328 182.481 74.4843 182.76L81.2867 190.612L88.0767 185.277ZM47.4942 123.953L54.2236 153.613L69.716 166.877L65.6354 151.802C64.8499 148.9 65.6941 145.762 67.8382 143.611C69.9252 141.518 72.8955 140.758 75.5899 141.629C75.6368 141.644 84.4348 144.644 84.4348 144.644L121.012 130.036C121.472 129.854 121.939 129.714 122.407 129.618L141.341 125.689L134.472 100.255L123.111 109.857C121.027 111.618 118.357 112.262 115.787 111.622C113.215 110.987 111.176 109.167 110.189 106.642L105.279 94.0735C104.414 91.8601 104.498 89.3309 105.51 87.1353C106.522 84.9398 108.383 83.2492 110.617 82.4968L131.297 75.5301L130.216 65.4133L121.609 67.3545C119.05 67.9073 116.378 67.1864 114.46 65.4229L87.0197 40.1627C86.7933 39.9554 86.5704 39.7252 86.3607 39.4822L67.8186 17.9347L51.9945 24.334L35.5877 45.2904L53.0941 51.7906C56.1924 52.941 58.2872 55.8962 58.4298 59.32L59.7835 92.1199C59.8364 93.4083 59.6024 94.722 59.1061 95.9209L47.4942 123.953Z" fill="#F3F9EC"/>
<path fill-rule="evenodd" clip-rule="evenodd" d="M134.58 225.912L105.88 188.014C104.306 185.936 102.189 184.399 99.7586 183.57C95.8355 182.231 91.5449 182.889 88.0767 185.277L81.2867 190.612L74.2933 196.185C71.7968 198.174 70.5545 201.375 71.0506 204.54L74.4177 225.946L58.1014 269.688C57.403 271.56 57.3484 273.623 57.9492 275.5L62.1193 288.507C62.9325 291.044 64.7848 292.972 67.2043 293.797C69.338 294.525 71.7234 294.324 73.7487 293.246C75.7526 292.18 77.2473 290.353 77.958 288.102L82.6084 273.313L121.432 254.299C122.827 253.615 124.021 252.556 124.886 251.233L134.835 236.025C136.886 232.888 136.784 228.825 134.58 225.912ZM79.1671 265.488L117.989 246.474L127.914 231.289L99.2153 193.467C98.6301 192.693 97.8452 192.123 96.945 191.816C95.3723 191.279 93.6365 191.593 92.3028 192.657L79.3158 203.004L82.7041 224.381C82.9413 225.887 82.7809 227.444 82.2438 228.886L65.9271 272.629L70.037 285.405L74.6632 270.768C75.3933 268.457 77.0349 266.533 79.1671 265.488Z" fill="#E7F2EC"/>
<path d="M148.554 46.9788L151.125 50.7899L140.283 82.5674C139.078 86.0985 140.972 89.9519 144.505 91.1572C145.742 91.5792 147.073 91.6288 148.356 91.2999L175.22 84.4333C176.903 84.0033 178.338 82.9575 179.264 81.4894L197.087 53.2218C198.417 51.1117 198.479 48.4538 197.25 46.2847L192.533 37.955C191.281 35.7451 188.784 34.3866 186.248 34.5386L153.773 36.4736C151.325 36.6189 149.211 38.0173 148.12 40.2133C147.029 42.4094 147.191 44.9385 148.554 46.9788ZM186.606 41.3124L191.324 49.5893L173.531 77.835L146.759 84.6773L157.571 52.99C158.247 51.0093 157.956 48.7889 156.793 47.05L154.266 43.2683L186.606 41.3124Z" fill="#F3F9EC"/>
<path d="M186.606 41.3124L191.324 49.5893L173.531 77.835L146.759 84.6773L157.571 52.99C158.247 51.0093 157.956 48.7889 156.793 47.05L154.266 43.2683L186.606 41.3124Z" fill="#F3F9EC"/>
</svg>
