<svg width="32" height="39" viewBox="0 0 32 39" fill="none" xmlns="http://www.w3.org/2000/svg">
<path id="general" d="M30.9441 22.1495C30.102 18.2239 26.0987 16.0991 24.097 14.4732C23.5852 14.0586 22.6783 13.8124 21.5447 13.6958C23.1188 13.0157 24.5051 12.167 24.9521 11.2342C26.008 9.03176 26.6363 6.5896 26.8501 4.73692C27.0639 2.87777 26.8501 0.675293 26.8501 0.675293L10.9404 3.46078L4.72813 4.73692C4.72813 4.73692 5.14919 7.87222 6.09496 10.3079C7.04073 12.7436 7.15086 13.359 8.73146 14.0975C9.3922 14.4019 10.487 14.6869 11.6595 14.9007C11.2773 15.0303 10.921 15.1728 10.6165 15.3153C7.35167 16.8506 4.19047 19.4676 2.71351 22.1559C1.23656 24.8443 0.608201 26.4313 0.187139 30.1432C-0.233923 33.855 0.187139 38.3247 0.187139 38.3247C0.187139 38.3247 20.9423 36.1805 24.3108 35.9473C27.6793 35.7141 32 35.7141 32 35.7141C32 35.7141 32 33.5117 32 31.374C32 29.2363 31.7927 26.0815 30.9441 22.1495Z" fill="#B8BC79"/>
</svg>
