<svg width="32" height="33" viewBox="0 0 32 33" fill="none" xmlns="http://www.w3.org/2000/svg">
<g id="general">
<g id="carrot">
<path id="Vector" d="M31.3532 13.0248C31.0476 13.9688 30.562 15.655 29.9617 17.6467C29.9181 17.7885 29.8744 17.9359 29.8308 18.0832C29.2633 19.9549 28.6085 22.0502 27.9209 24.0201C27.8773 24.1402 27.8336 24.2657 27.7954 24.3857C27.348 25.6408 26.8896 26.8413 26.4367 27.8835C26.3876 27.9981 26.3385 28.1072 26.2893 28.2164C25.4163 30.1535 24.5541 31.4904 23.8175 31.5613C23.7356 31.5668 23.681 31.5559 23.6592 31.5504C22.8462 31.3376 22.9717 28.5219 23.1354 25.417C23.1408 25.2806 23.1517 25.1497 23.1572 25.0133C23.179 24.5713 23.2063 24.1238 23.2281 23.6818C23.2827 22.5632 23.3154 21.5482 23.3373 20.626C23.3427 20.4787 23.3427 20.3314 23.3482 20.1895C23.4027 17.412 23.3591 15.5185 23.4355 14.1871C23.4464 13.9525 23.4682 13.7287 23.49 13.5268C23.6156 12.3646 23.9157 11.7316 24.6196 11.295C24.9743 11.0768 25.3672 10.9458 25.8255 10.8694C26.7095 10.7275 27.8172 10.7985 29.2742 10.8967C29.4051 10.9076 29.5306 10.9131 29.6507 10.9294C30.5074 11.0167 31.0858 11.1968 31.3532 11.6497C31.6424 12.1572 31.4296 12.7956 31.3532 13.0248Z" fill="#EFC12E"/>
<path id="Vector_2" d="M29.6345 10.924C29.5145 10.913 29.389 10.9021 29.258 10.8912C27.8011 10.793 26.6879 10.7166 25.8093 10.8639C25.4165 10.2801 24.7289 9.1669 24.3851 8.09738C23.8886 6.54221 25.0454 8.25016 25.7002 8.79038C26.355 9.3306 25.9239 4.57779 26.3768 3.93935C26.8298 3.30091 26.9716 7.43711 27.3372 8.27745C27.7028 9.11778 28.4559 5.94743 29.3726 5.118C30.2893 4.28858 30.3821 4.7142 30.0329 5.80555C29.6782 6.8969 29.569 7.33344 29.2744 8.29382C28.9797 9.2542 28.8597 9.51613 29.1816 9.47793C29.4981 9.43973 31.2442 6.58041 31.91 6.76048C32.4502 6.8969 30.4257 9.81625 29.6345 10.924Z" fill="#89C644"/>
</g>
<g id="broccoli">
<path id="Vector_3" d="M22.617 4.89419C22.6661 4.26666 21.8694 3.57366 21.1164 3.37722C20.2488 3.14804 19.4466 3.57366 19.0974 3.76465C18.2625 4.2121 18.2025 4.65955 17.7496 4.62135C17.253 4.5777 17.0566 4.08114 16.1671 3.75373C16.0634 3.71554 15.9489 3.69371 15.807 3.68279C15.0867 3.63368 14.5246 4.0484 14.4428 4.10842C13.9899 4.45219 14.1154 4.67592 13.8044 4.85599C12.9804 5.33618 11.7908 3.9338 10.8414 4.43037C10.574 4.57224 10.3666 4.82325 10.2739 4.9815C9.93008 5.56537 9.8646 5.85457 9.85369 6.0401C9.84823 6.18743 9.89188 6.23654 9.85369 6.34022C9.76638 6.58032 9.48263 6.62397 9.21525 6.77676C8.83328 6.99503 8.82782 7.25149 8.57136 7.5025C8.02023 8.04272 7.37088 7.55161 6.54145 7.92813C5.64655 8.33193 5.0354 9.49967 5.30823 10.1981C5.40645 10.4382 5.55379 10.6456 5.9303 10.8475C7.63826 11.7697 6.78155 11.1476 8.41311 11.6169C10.0447 12.0807 9.499 13.4012 11.0542 12.3153C11.2233 12.2007 11.3652 12.0862 11.4907 11.9716C12.0146 11.5023 12.211 11.0712 12.4183 10.722C12.6202 10.3837 12.8385 10.1217 13.3842 9.98531C13.4551 9.96894 13.5261 9.95257 13.5915 9.94166C13.8044 9.90346 13.9844 9.88709 14.1481 9.88709C14.4755 9.89255 14.7429 9.95803 15.0649 10.0017C15.3814 10.0453 15.747 10.0726 16.2817 9.99077C16.2981 9.99077 16.3145 9.98531 16.3363 9.98531C17.7987 9.75613 18.0824 8.98673 19.3157 8.06455C19.3266 8.05909 19.332 8.04818 19.3429 8.04272C19.523 7.9063 19.7249 7.80808 19.9377 7.73714C20.8272 7.42065 21.8476 7.53524 22.0604 7.12053C22.1804 6.88589 21.8858 6.7713 21.8912 6.35113C21.8967 5.86549 22.5733 5.5108 22.617 4.89419Z" fill="#13783E"/>
<path id="Vector_4" d="M20.9362 17.783C20.2978 18.1377 19.7303 18.3123 19.3374 18.3996C18.7372 18.536 18.3115 18.536 18.2079 18.536C17.8859 18.5306 17.6185 18.4978 17.4221 18.4597C17.3675 18.225 17.2911 17.8812 17.1929 17.4665C16.8328 15.9496 16.6527 15.1911 16.5327 15.0165C15.927 14.1652 15.1521 14.7163 13.3459 13.6195C12.4183 13.0575 11.9163 12.49 11.7635 12.3045C11.6653 12.1899 11.5779 12.0753 11.4961 11.9661C12.0199 11.4969 12.2164 11.0658 12.4237 10.7166C12.7239 11.2349 13.0949 11.797 13.3787 12.0371C13.4551 12.1026 13.5315 12.1571 13.6078 12.2117C13.7443 12.0262 13.9243 11.7261 13.9898 11.3604C14.0608 10.9676 13.8043 10.351 13.6024 9.93624C13.8152 9.89805 13.9953 9.88168 14.159 9.88168C14.219 10.0126 14.2845 10.1654 14.3663 10.34C14.6555 10.9676 14.6828 11.2349 14.4809 11.7097C14.3718 11.9661 14.1972 12.2554 14.0608 12.4682C14.5137 12.681 14.9175 12.7465 15.0975 12.7683C15.8997 12.8829 16.8764 12.7301 16.9365 12.4245C16.9528 12.3317 16.8873 12.239 16.8055 12.1135C16.6472 11.8734 16.4399 11.7752 16.3035 11.6933C16.1016 11.5678 15.9488 11.3768 15.6432 10.9948C15.3977 10.6838 15.2067 10.3237 15.0757 10.0017C15.3922 10.0454 15.7578 10.0727 16.2926 9.99081C16.3253 10.1163 16.358 10.2473 16.3908 10.3782C16.5872 11.2513 17.9187 11.9334 18.0005 11.0712C18.0769 10.2091 18.8627 9.89259 19.2446 8.95403C19.3756 8.62663 19.3811 8.32105 19.3265 8.06459C19.3374 8.05913 19.3429 8.04822 19.3538 8.04276C19.5339 7.90634 19.7358 7.80812 19.9486 7.73718C20.1177 8.58298 20.2159 9.67432 19.8121 10.3837C19.0755 11.6933 19.4138 13.1557 19.8121 14.509C20.205 15.8568 20.9362 17.783 20.9362 17.783Z" fill="#89C644"/>
</g>
<g id="eggplant">
<path id="Vector_5" d="M20.587 29.3186C19.4465 31.4248 17.1492 31.905 16.4617 32.0524C15.3431 32.287 14.3445 32.1942 13.4168 32.0087C10.2901 31.3703 5.02438 28.8711 2.26328 23.3762C1.41749 21.6955 0.991861 20.0912 0.888184 18.7161C1.0628 18.6397 1.23741 18.5361 1.38475 18.4051C1.48297 18.3178 1.81583 18.0068 1.94679 17.5047C2.13232 16.7899 1.81037 16.0805 2.08321 15.9277C2.09412 15.9223 2.09412 15.9168 2.09958 15.9223C2.27419 15.9277 2.29056 18.4815 3.31643 18.8416C4.36958 19.2181 3.48013 17.9467 3.67111 16.9318C3.8621 15.9168 3.72023 14.9837 4.16222 15.0983C4.60421 15.2129 5.63554 18.1977 6.39402 17.9085C7.15251 17.6193 6.00114 16.5935 5.9302 15.6931C5.85926 14.7927 6.03388 14.951 6.41039 15.1693C6.78691 15.3875 7.13068 17.4829 8.18383 17.2046C8.30388 17.1719 8.41847 17.1337 8.5276 17.0955C8.97505 17.783 9.56438 18.476 10.4538 19.0763C12.5765 20.5169 13.3841 19.3873 16.7236 21.1662C18.377 22.0447 20.145 23.0215 20.8653 25.0405C20.9689 25.3461 21.6456 27.3596 20.587 29.3186Z" fill="#E6EB97"/>
<path id="Vector_6" d="M9.13868 16.3207C8.47296 16.3807 7.04875 12.6592 4.52229 13.2376C4.05301 13.3468 3.74743 13.2922 3.55645 13.134C2.80888 12.5228 3.63284 10.2746 3.2727 10.1546C3.22359 10.1382 3.21267 10.1764 2.8689 10.2637C2.59061 10.3347 2.51967 10.3292 2.4651 10.351C2.05039 10.5147 2.80888 12.2718 2.3396 13.7124C1.94126 14.9347 1.09001 14.6236 0.76806 15.8787C0.538877 16.7845 0.926305 17.7995 0.189647 18.4488C0.0259449 18.5907 -0.0231656 18.7107 0.00957475 18.798C0.0532286 18.9235 0.473397 18.8963 0.899021 18.7107C1.07364 18.6343 1.24825 18.5307 1.39558 18.3997C1.4938 18.3124 1.82667 18.0014 1.95763 17.4993C2.14316 16.7845 1.82121 16.0751 2.09404 15.9223C2.10496 15.9169 2.10496 15.9114 2.11041 15.9169C2.28503 15.9223 2.3014 18.4761 3.32727 18.8362C4.38041 19.2127 3.49097 17.9413 3.68195 16.9264C3.87294 15.9114 3.73106 14.9783 4.17306 15.0929C4.61505 15.2075 5.64637 18.1923 6.40486 17.9031C7.16334 17.6139 6.01197 16.5881 5.94104 15.6877C5.8701 14.7873 6.04472 14.9456 6.42123 15.1639C6.79774 15.3821 7.14152 17.4775 8.19467 17.1992C8.31471 17.1665 8.42931 17.1283 8.53844 17.0901C9.34604 16.7736 9.72801 16.2661 9.13868 16.3207Z" fill="#89C644"/>
<path id="Vector_7" d="M14.3662 22.3612C14.9064 21.7882 16.5434 22.4867 17.3564 22.9505C18.6552 23.6926 19.4082 24.7403 19.5337 25.5097C19.5555 25.6571 19.6155 26.0336 19.3973 26.3282C19.2718 26.4919 19.0371 26.6666 18.8298 26.612C18.677 26.5738 18.5951 26.421 18.5678 26.3719C18.3114 25.9135 17.351 24.4784 16.718 23.9273C15.6812 23.016 14.2898 23.3707 14.2025 22.7814C14.1752 22.574 14.328 22.3994 14.3662 22.3612Z" fill="white"/>
</g>
<g id="tomato">
<path id="Vector_8" d="M7.8178 3.50283C7.60499 2.72798 7.02657 2.30781 6.87378 2.20413C5.89703 1.5275 4.69109 1.78942 4.12905 1.97495C3.95989 2.02952 3.8453 2.07863 3.81802 2.095C3.26143 2.34601 2.79215 2.73889 2.43746 3.19726C1.77174 4.04851 1.48799 5.10711 1.68989 5.85468C1.85905 6.47675 2.26831 6.86418 2.26831 6.86418C2.32833 6.91874 2.62299 7.18612 3.15775 7.34437C4.59833 7.75908 6.01708 6.85872 6.22443 6.7223C6.59549 6.48221 7.24484 6.04567 7.61044 5.19988C7.74686 4.89976 8.02515 4.26677 7.8178 3.50283Z" fill="#DB3B0F"/>
<path id="Vector_9" d="M4.12924 1.97489C3.96009 2.02946 3.84549 2.07857 3.81821 2.09494C3.26162 2.34595 2.79235 2.73884 2.43766 3.1972C1.8647 2.78795 1.35177 2.38415 1.40634 2.29138C1.41725 2.26956 1.4609 2.26956 1.5373 2.27501C1.96292 2.3023 2.20302 2.5915 2.34489 2.5042C2.36672 2.49328 2.39946 2.46054 2.41583 2.41689C2.43766 2.35141 2.41038 2.29138 2.39946 2.27501C2.32307 2.09494 2.0666 1.12364 2.31215 0.954485C2.32307 0.949029 2.33398 0.938115 2.36126 0.932658C2.61773 0.894461 2.95605 2.00763 3.20706 1.90396C3.47444 1.79482 3.71999 0.637995 3.87278 0.828981C3.95463 0.938115 4.05285 1.50016 4.12924 1.97489Z" fill="#89C644"/>
</g>
</g>
</svg>
