<svg width="32" height="33" viewBox="0 0 32 33" fill="none" xmlns="http://www.w3.org/2000/svg">
<g id="general">
<path id="Vector" d="M17.3076 32.2882C16.5878 33.0683 7.97881 32.6398 6.68224 32.7387C5.8966 32.7991 5.9021 30.7883 6.02296 29.2006C9.31934 30.7773 13.731 30.8158 17.3021 29.1346C17.5328 30.3653 17.7086 31.8542 17.3076 32.2882Z" fill="#13783E"/>
<path id="Vector_2" d="M23.3676 13.7846C23.2797 12.1694 23.0544 11.1255 22.2798 10.3728C21.0326 9.15867 19.4339 9.72454 14.3355 9.79597C12.3302 9.82344 9.20416 9.78498 7.19337 9.74103C3.59483 9.66411 1.95214 9.54324 0.996187 10.686C0.661056 11.0925 0.501731 11.554 0.32043 13.3121C0.0127689 16.2898 -0.135568 17.7787 0.161106 19.7181C0.397346 21.2509 0.985199 25.0527 3.57835 27.5359C4.28157 28.2062 5.11116 28.7666 6.02865 29.2061C9.32503 30.7829 13.7367 30.8213 17.3077 29.1402C18.4395 28.6073 19.4834 27.904 20.3789 27.0195C23.9005 23.5528 23.6423 18.839 23.3676 13.7846Z" fill="#F8D8CF"/>
<path id="Vector_3" d="M31.1141 19.1191C30.4658 20.0531 29.4659 20.9102 23.9115 23.355C23.2467 23.6461 22.2743 24.0637 21.582 23.6297C21.5216 23.5912 20.9777 23.2396 20.9722 22.6133C20.9667 22.0254 21.4447 21.6628 21.5051 21.6244C21.7414 21.5145 22.0161 21.3881 22.3182 21.2618C22.4831 21.1958 22.7413 21.0915 23.0544 20.9761C23.5049 20.8113 23.851 20.7069 23.917 20.6849C26.0926 19.9817 27.5595 19.5092 28.4495 18.1247C28.9879 17.2896 29.7461 15.7074 29.0538 14.6361C28.2792 13.4329 26.142 13.5592 25.9058 13.5757C25.3399 13.6142 24.796 13.768 24.796 13.768C24.1972 13.9383 22.6863 14.4822 22.494 14.3614C22.4391 14.3229 22.3842 14.279 22.3842 14.279C22.3842 14.279 22.3127 14.2185 22.2523 14.1471C21.9282 13.7625 21.8787 12.9165 21.8787 12.9165C21.8677 12.7626 21.8567 12.5319 21.8842 12.4055C22.0765 11.5265 25.4168 10.6365 28.3176 11.8067C28.9055 12.0429 31.2404 12.9879 31.8448 15.1525C32.1799 16.3502 31.8722 17.5259 31.8448 17.6248C31.7349 17.9819 31.5481 18.4928 31.1141 19.1191Z" fill="#EFC12E"/>
<path id="Vector_4" d="M5.69879 8.44442C5.69879 8.44442 3.89677 6.85667 4.83624 5.13157C5.77571 3.40646 7.72057 2.31866 6.20424 0.879244L6.75912 0.230957C6.75912 0.230957 7.28105 0.681462 7.50081 1.60994C7.71507 2.53842 7.35797 3.8295 6.63826 4.44482C5.91855 5.06014 4.90766 5.34583 5.34168 6.13696C5.77571 6.92809 6.85252 7.93898 6.85252 7.93898L5.69879 8.44442Z" fill="#EFC12E"/>
<path id="Vector_5" d="M11.3906 8.44442C10.2039 6.62592 10.2259 5.66997 10.5281 5.13157C10.9676 4.33494 12.0334 4.35692 12.418 3.26362C12.6597 2.58237 12.4675 1.91211 12.4455 1.83519C12.3081 1.36271 12.0499 1.04406 11.8961 0.879244L12.451 0.230957C12.451 0.230957 12.9729 0.681462 13.1927 1.60994C13.4069 2.53842 13.0498 3.8295 12.3301 4.44482C11.7587 4.93378 11.0061 5.21398 10.9346 5.70294C10.9072 5.87325 10.9731 6.0106 11.0335 6.13696C11.2203 6.56549 11.55 7.24125 12.0994 8.13676C11.8631 8.24115 11.6269 8.34004 11.3906 8.44442Z" fill="#EFC12E"/>
<path id="Vector_6" d="M17.5826 8.23016C16.1047 6.5545 16.0004 5.648 16.2256 5.13157C16.5333 4.42285 17.4563 4.41735 17.8518 3.35702C18.0936 2.69774 17.9892 2.02748 17.9617 1.87914C17.8848 1.42864 17.72 1.09351 17.5936 0.879244L18.1485 0.230957C18.1485 0.230957 18.6704 0.681462 18.8902 1.60994C19.066 2.35712 18.8627 3.63721 18.0276 4.44482C17.4673 4.98323 16.8629 5.08212 16.797 5.61503C16.775 5.79634 16.8245 5.95566 16.9563 6.21937C17.1596 6.63142 17.5332 7.25773 18.2474 7.93898C18.0221 8.03787 17.8024 8.13127 17.5826 8.23016Z" fill="#EFC12E"/>
<path id="Vector_7" d="M11.5007 16.3832C11.5007 16.3832 11.4787 12.911 7.25935 14.0703C3.03999 15.2295 6.20451 19.0258 7.25935 20.3993C8.31419 21.7728 11.5007 24.8219 11.5007 24.8219C11.5007 24.8219 15.9068 21.3113 17.8023 19.2181C19.6977 17.1249 17.2748 12.2737 15.3739 12.9055C13.4785 13.5428 11.5007 16.3832 11.5007 16.3832Z" fill="#DB3B0F"/>
</g>
</svg>
