<svg width="32" height="43" viewBox="0 0 32 43" fill="none" xmlns="http://www.w3.org/2000/svg">
<g id="general">
<path id="Vector" d="M25.3902 21.9138C25.0703 23.1448 24.34 25.9962 21.892 27.5889C17.8582 30.2108 12.357 27.3663 10.7574 26.5456C9.41517 25.8502 4.29649 22.964 2.86381 17.1776C2.14052 14.2497 2.68299 11.8851 2.81513 11.3565V11.3496C3.05159 10.4037 3.89311 7.04458 6.99492 5.06249C8.3511 4.19315 9.60295 3.92887 10.3401 3.78282C10.5766 3.73413 14.5686 3.01084 18.3798 4.88862C19.3117 5.34763 20.2298 5.95965 21.0782 6.78031C23.0117 8.63722 23.6724 10.661 24.5487 13.3456C25.3415 15.7658 26.2526 18.5686 25.3902 21.9138Z" fill="#E9896F"/>
<path id="Vector_2" d="M22.5663 11.6764C23.3869 10.8001 20.3964 7.1489 18.3865 4.88166C14.5753 3.00388 10.5833 3.72718 10.3468 3.77586C9.99906 3.84541 9.53309 3.94277 8.99758 4.11664C8.93498 4.1375 8.86544 4.15837 8.80284 4.18619C8.76807 4.2001 8.7333 4.21401 8.69852 4.22096C8.51075 4.29051 8.31601 4.36701 8.11433 4.45742C8.07955 4.47133 8.03782 4.4922 8.00305 4.51306C7.96828 4.52697 7.9335 4.54783 7.89873 4.56174C7.80832 4.61043 7.71095 4.65215 7.61358 4.70779C7.57881 4.7217 7.54404 4.74257 7.51622 4.76343C7.46058 4.79125 7.40494 4.82602 7.34931 4.85384C7.32149 4.86775 7.29367 4.88862 7.26585 4.90252C7.18239 4.95121 7.09894 5.00685 7.01548 5.05553C3.89281 7.03763 3.05128 10.4037 2.82178 11.3426C3.37816 10.6263 3.92758 9.60392 3.92758 9.60392C3.92758 9.60392 3.67025 14.6113 5.39503 13.9924C7.1198 13.3734 6.86247 8.65808 6.86247 8.65808C6.95984 9.13796 7.86396 13.3456 9.24795 13.4221C9.36618 13.429 9.74173 13.4151 10.0338 13.1717C10.4859 12.7822 10.4303 12.0589 10.3885 11.5234C10.3537 11.0714 10.2286 10.3064 9.73478 9.4231C10.2216 10.2507 10.9727 11.4052 12.0298 12.671C14.2484 15.3346 17.3085 17.8522 18.915 18.4712C19.3532 18.6451 19.687 18.6729 19.8609 18.5199C19.9165 18.4712 19.9582 18.4086 19.9791 18.3252C20.2642 17.1846 18.8733 15.3346 17.5658 13.9019C19.7148 15.6267 22.3507 16.8647 22.2255 15.2998C22.0933 13.6168 18.9567 10.8558 17.5867 9.72911C18.8455 10.7028 21.6413 12.671 22.5663 11.6764Z" fill="#AF2F0C"/>
<path id="Vector_3" d="M19.6456 27.5819C19.4787 27.3454 18.8319 26.184 18.3033 25.2173C18.6163 24.8487 18.9084 24.4523 19.1587 24.035C20.042 22.5606 19.5691 20.2933 18.9153 18.4712C17.3088 17.8522 14.2557 15.3277 12.0301 12.671C10.973 11.4052 10.2289 10.2507 9.73508 9.4231C10.2289 10.3064 10.3541 11.0714 10.3888 11.5234C10.4306 12.0589 10.4862 12.7822 10.0341 13.1717C9.74204 13.4221 9.36648 13.429 9.24825 13.4221C7.86426 13.3525 6.96014 9.14491 6.86278 8.65808C6.86278 8.65808 7.1201 13.3803 5.39533 13.9924C3.67056 14.6113 3.92788 9.60392 3.92788 9.60392C3.92788 9.60392 3.37846 10.6263 2.82208 11.3426V11.3496C2.68994 11.8851 2.14052 14.2427 2.87076 17.1707C4.30344 22.957 9.41516 25.8432 10.7644 26.5387C11.3416 26.8377 12.4405 27.4011 13.7897 27.874C13.7966 27.874 13.8036 27.881 13.8106 27.881C13.9149 27.9157 14.0192 27.9505 14.1305 27.9922C15.9317 28.5834 18.1225 28.9659 20.1533 28.3747C19.9794 28.0965 19.7847 27.7766 19.6456 27.5819Z" fill="#F9E6AB"/>
<path id="Vector_4" d="M8.00342 23.3395C8.50416 22.9083 9.03272 22.4284 9.56128 21.886C9.8951 21.5452 10.2011 21.2114 10.4863 20.8914L11.0426 21.3922L11.3973 20.4116C11.9885 20.2238 12.6074 20.043 13.2612 19.8761C13.7828 19.7439 14.2835 19.6257 14.7773 19.5214C14.8051 19.9386 14.8051 20.9193 14.1862 21.8512C13.6437 22.6719 12.9135 23.0126 12.2806 23.3117C11.759 23.5551 10.9453 23.9307 9.83947 23.8611C8.99794 23.8124 8.36506 23.5342 8.00342 23.3395Z" fill="#E9896F"/>
<path id="Vector_5" d="M5.02658 16.3013C4.93617 16.3431 4.84576 16.3848 4.7484 16.4404C5.3465 16.4543 5.80551 16.9898 5.81942 17.5045C5.83333 17.9566 5.49951 18.2765 5.44387 18.3252C5.38128 18.3808 5.12395 18.6173 4.75535 18.6242C4.21984 18.6312 3.59391 18.1304 3.62868 17.4628C3.63564 17.3724 3.64955 17.2819 3.67737 17.1985C3.56609 17.3167 3.46177 17.435 3.38527 17.5671C3.2879 17.7201 3.19749 17.8801 3.10708 18.0331C3.03058 17.8036 2.96103 17.5671 2.89844 17.3237C3.12099 17.0246 3.46873 16.6769 4.00424 16.3083C5.46473 15.3068 6.80004 15.578 6.80004 15.578V16.0231C6.80004 16.0162 5.5621 16.0649 5.02658 16.3013Z" fill="#AF2F0C"/>
<path id="Vector_6" d="M8.9212 15.0913L8.53174 14.8826C8.53174 14.8826 8.92816 13.5821 10.4999 12.7684C12.0717 11.9547 12.8715 12.3233 12.8715 12.3233L13.3096 12.7684C13.3096 12.7684 12.5794 12.7753 11.9048 12.8171C11.7518 12.824 11.5988 12.8588 11.4388 12.9005C11.5292 12.9144 11.6127 12.9422 11.6961 12.977C12.3082 13.2552 12.4472 14.048 12.1899 14.514C12.0161 14.8339 11.6753 14.9522 11.5988 14.98C11.5292 15.0078 11.0911 15.1538 10.7016 14.9243C10.2635 14.667 10.0061 14.0133 10.2774 13.4778C10.187 13.5404 10.1035 13.6029 10.02 13.6586C9.55408 14.0202 8.9212 15.0913 8.9212 15.0913Z" fill="#AF2F0C"/>
<path id="Vector_7" d="M11.1888 18.6172L8.9424 19.9595C8.9424 19.9595 6.94639 13.8324 5.7015 13.0465C4.92257 12.5527 3.47598 13.0187 2.50928 13.429C2.52319 13.1786 2.54405 12.9491 2.56492 12.7405C5.02689 11.6486 6.39002 12.9144 6.79339 13.4707C7.23154 14.0758 9.18582 19.2779 9.18582 19.2779C9.18582 19.2779 9.72133 18.9232 9.8952 18.7772C10.076 18.6311 10.9106 18.1721 10.9106 18.1721L11.1888 18.6172Z" fill="#AF2F0C"/>
<path id="Vector_8" d="M30.2028 35.2739C29.5351 34.2446 28.1303 32.1094 26.8854 30.2178C26.2873 29.3067 25.7239 28.4513 25.2997 27.8045C26.7115 26.0727 27.2957 24.1115 27.5878 23.117C28.8049 18.9998 27.713 15.4807 26.8645 12.7614C25.9326 9.75695 25.098 7.07938 22.6291 4.74954C19.729 2.00242 14.5407 -0.278727 9.123 1.50168C4.28947 3.08736 1.35457 7.22543 0.387864 11.0505C-0.356292 13.9993 0.158358 16.4196 0.387864 17.4419C2.07091 24.9322 9.0465 28.4095 10.0271 28.8825C11.3555 29.5223 16.4324 31.9564 20.9947 30.649C21.3425 31.3862 22.024 32.5824 22.8655 33.9177C23.4011 34.7592 23.9992 35.6633 24.6181 36.5327C26.6002 39.3215 28.7632 43.0145 30.9191 41.9365C33.082 40.8585 31.552 37.3464 30.2028 35.2739ZM21.8919 27.5889C21.3355 27.9505 20.7513 28.2078 20.1532 28.3817C18.1224 28.9729 15.9247 28.5834 14.1304 27.9992C14.0122 27.9644 13.9009 27.9227 13.7896 27.881C12.4404 27.4081 11.3416 26.8447 10.7643 26.5457C9.48465 25.885 4.81107 23.2491 3.11412 18.0331C3.03762 17.8036 2.96807 17.5671 2.90548 17.3237C2.89157 17.275 2.87766 17.2263 2.8707 17.1776C2.51601 15.745 2.46733 14.4514 2.52297 13.436C2.53688 13.1856 2.55774 12.9561 2.5786 12.7475C2.65511 12.052 2.77334 11.5582 2.82202 11.3496V11.3426C3.05848 10.3968 3.9 7.03765 7.00181 5.05555C7.71815 4.59654 8.39971 4.31139 8.99782 4.11666C9.53333 3.94279 9.9993 3.84543 10.347 3.77588C10.5835 3.7272 14.5755 3.00391 18.3867 4.88168C19.3186 5.34069 20.2367 5.95271 21.0851 6.77337C23.0186 8.63028 23.6792 10.6541 24.5555 13.3386C25.3484 15.7658 26.2525 18.5686 25.3971 21.9138C25.0702 23.1518 24.3399 25.9962 21.8919 27.5889ZM30.3627 40.5664C29.7925 40.9211 28.6241 40.2743 28.2137 39.3841C28.1303 39.2033 27.8312 38.5565 28.179 37.9653C28.4015 37.5898 28.8327 37.3185 29.2569 37.3324C30.0776 37.3533 30.6062 38.4035 30.7105 39.1615C30.7244 39.3076 30.8565 40.2604 30.3627 40.5664Z" fill="#13783E"/>
</g>
</svg>
