<svg width="248" height="267" viewBox="0 0 248 267" fill="none" xmlns="http://www.w3.org/2000/svg">
<path d="M1.08594 150.927C0.512301 138.79 10.8058 128.949 22.9054 130.068L70.3694 134.458L169.93 134.335L224.723 129.854C236.954 128.853 247.193 139.003 246.3 151.243L244.39 177.408C244.223 179.695 243.664 181.937 242.737 184.034L230.563 211.592C230.095 212.652 229.535 213.67 228.891 214.633L215.26 235.004C213.472 237.676 211.066 239.877 208.246 241.422L194.445 248.981C192.937 249.807 191.329 250.436 189.66 250.85L152.533 260.075C150.955 260.467 149.336 260.666 147.71 260.666H94.4218C92.4222 260.666 90.4338 260.366 88.5232 259.776L59.0489 250.679C58.0723 250.377 57.1203 250.001 56.2011 249.554L39.3084 241.339C36.2486 239.852 33.619 237.608 31.6683 234.82L15.562 211.803C14.4777 210.254 13.6187 208.558 13.0106 206.767L3.13034 177.671C2.52888 175.9 2.17888 174.053 2.09058 172.184L1.08594 150.927Z" fill="#D0E8B4"/>
<path d="M62.1472 171.524L69.9843 180.149C71.2969 181.594 70.8764 183.757 69.1353 184.517C68.507 184.791 67.7846 184.838 67.0971 184.65L55.0476 181.355C52.6171 180.69 50.708 178.809 50.0998 176.48C48.8361 171.64 53.5441 167.621 58.5071 169.304L59.0039 169.472C60.213 169.882 61.2996 170.591 62.1472 171.524Z" fill="#429365"/>
<path d="M81.0022 167.239L82.2879 175.653C82.8984 179.648 80.1547 183.382 76.1598 183.992C72.1648 184.603 68.4313 181.859 67.8208 177.864L66.535 169.451C65.9245 165.456 68.6682 161.722 72.6632 161.111C76.6582 160.501 80.3916 163.244 81.0022 167.239Z" fill="#13783E"/>
<path d="M45.9304 211.154C45.9803 211.571 46.08 211.987 46.2146 212.385C51.6597 228.47 65.9013 233.074 85.3347 230.103C106.931 228.737 119.454 215.216 117.265 200.89C117.05 184.113 97.8669 174.469 78.245 180.224C77.8674 180.335 77.4782 180.425 77.09 180.489C58.006 183.636 44.2583 197.189 45.9304 211.154Z" fill="#F5F7D5"/>
<path d="M227.27 193.465L207.031 198.385C206.635 198.481 206.328 198.793 206.238 199.19C206.081 199.886 206.634 200.538 207.346 200.497L228.14 199.29C229.919 199.187 231.203 197.545 230.874 195.793C230.562 194.128 228.917 193.065 227.27 193.465Z" fill="#6E9E36"/>
<path d="M223.295 179.517L203.927 192.793C203.096 193.362 202.757 194.423 203.104 195.369C203.563 196.62 205.018 197.182 206.198 196.563L226.991 185.656C228.79 184.713 229.448 182.467 228.443 180.702C227.404 178.877 225.027 178.329 223.295 179.517Z" fill="#89C644"/>
<path d="M214.679 170.645L200.519 188.613C199.597 189.783 199.809 191.481 200.989 192.388C202.08 193.226 203.627 193.1 204.568 192.098L220.224 175.416C222.023 173.498 221.275 170.366 218.803 169.469C217.319 168.93 215.656 169.404 214.679 170.645Z" fill="#89C644"/>
<path d="M200.182 185.582L204.398 189.512C205.677 190.704 206.531 192.281 206.829 194.003L207.977 200.63C208.107 201.384 208.129 202.154 208.042 202.914L207.22 210.034C207.037 211.622 206.382 213.119 205.34 214.331L198.928 221.791C198.379 222.429 197.734 222.976 197.014 223.413L186.748 229.645L171.64 236.532C171.134 236.762 170.605 236.939 170.062 237.06L148.808 241.792L136.841 242.792C130.01 243.363 125.668 235.634 129.71 230.097L149.508 202.974C149.929 202.396 150.427 201.877 150.986 201.432L163.06 191.822L173.357 185.646C173.748 185.412 174.158 185.211 174.584 185.046L183.236 181.699C184.808 181.091 186.532 180.996 188.162 181.426L196.768 183.699C198.044 184.036 199.216 184.683 200.182 185.582Z" fill="#DB3B0F"/>
<path d="M115.201 114.317L111.575 112.628C106.481 110.255 100.597 113.742 100.226 119.354L99.4555 131.012C99.3874 132.042 99.5191 133.076 99.8433 134.057L102.96 143.483C103.532 145.211 104.675 146.693 106.2 147.684L134.023 165.754C134.93 166.343 135.947 166.741 137.011 166.926L154.308 169.924C155.642 170.155 157.014 170.044 158.293 169.599L168.295 166.124C169.072 165.854 169.803 165.465 170.461 164.97C174.882 161.648 174.65 154.932 170.009 151.922L166.671 149.757C164.306 148.222 161.308 148.048 158.782 149.298L154.213 151.558C152.061 152.623 149.544 152.663 147.358 151.666L127.228 142.489C125.613 141.753 124.289 140.5 123.463 138.927L120.455 133.198C119.804 131.958 119.489 130.568 119.543 129.168L119.82 121.881C119.943 118.659 118.122 115.677 115.201 114.317Z" fill="#EFC12E"/>
<rect x="37.6285" y="59.3451" width="8.60324" height="64.6062" rx="4.30162" fill="#DB3B0F"/>
<rect x="9.66797" y="95.9552" width="8.61416" height="64.5243" rx="4.30708" transform="rotate(-90 9.66797 95.9552)" fill="#DB3B0F"/>
<rect width="8.6087" height="64.5653" rx="4.30435" transform="matrix(0.706658 -0.707555 0.706658 0.707555 16.0758 71.852)" fill="#DB3B0F"/>
<rect width="8.6087" height="64.5653" rx="4.30435" transform="matrix(0.706658 0.707555 -0.706658 0.707555 61.7461 65.8057)" fill="#DB3B0F"/>
<rect x="96.0367" y="38.7216" width="5.49262" height="41.247" rx="2.74631" fill="#EFC12E"/>
<rect x="78.1858" y="62.0949" width="5.49959" height="41.1947" rx="2.7498" transform="rotate(-90 78.1858 62.0949)" fill="#EFC12E"/>
<rect width="5.49611" height="41.2208" rx="2.74805" transform="matrix(0.706658 -0.707555 0.706658 0.707555 82.2766 46.7065)" fill="#EFC12E"/>
<rect width="5.49611" height="41.2208" rx="2.74805" transform="matrix(0.706658 0.707555 -0.706658 0.707555 111.434 42.8464)" fill="#EFC12E"/>
<ellipse cx="44.9779" cy="14.7311" rx="14.7124" ry="14.7311" fill="#13783E"/>
</svg>
