<svg width="32" height="37" viewBox="0 0 32 37" fill="none" xmlns="http://www.w3.org/2000/svg">
<g id="Frame 164" clip-path="url(#clip0_180_1599)">
<g id="pear">
<path id="Vector" d="M15.2924 3.50207C15.2924 3.50207 16.0683 2.45208 16.1647 1.42756C16.1907 1.19286 16.237 0.773745 16.3243 0.291329C16.87 0.250828 17.4343 0.195441 17.98 0.154939C17.6108 2.11625 16.6846 3.91314 16.6846 3.91314L16.1129 4.03559L15.2924 3.50207Z" fill="#062614"/>
<path id="Vector_2" d="M1.20554 31.885C3.59255 35.0982 8.17535 36.7107 11.5497 36.7136C12.2306 36.7217 13.3978 36.648 14.6192 36.5462C15.1692 36.5056 15.7378 36.45 16.2877 36.4094C16.7684 36.378 17.2342 36.328 17.6476 36.2891C19.5573 36.1282 20.5206 36.0486 21.2857 35.9129C24.4094 35.411 27.8528 35.3096 29.5286 33.4196C30.3272 32.5213 31.1026 31.7477 31.63 30.3763C32.3014 28.6293 31.628 26.3143 31.628 26.3143C31.4364 23.9658 28.6142 19.69 26.0324 13.6282C24.7471 10.6235 23.7569 6.58703 22.0902 5.17442C19.1645 2.66729 18.9413 3.63563 15.8418 3.45909C12.776 3.28632 11.7364 4.40779 11.7364 4.40779C8.56199 7.51628 7.24414 10.3971 5.8341 14.4966C3.41608 21.5316 -2.29455 27.185 1.20554 31.885Z" fill="#89C644"/>
<path id="Vector_3" d="M4.77507 21.5031C3.53205 22.851 3.12076 24.7275 3.12076 24.7275C2.53985 27.4634 3.10625 31.3298 4.85066 31.9069C5.24847 32.0456 5.80197 32.0201 6.16875 31.755C6.64749 31.4136 6.81331 30.7238 6.74974 29.2392C6.6575 26.7243 6.08589 26.5142 6.13047 25.1229C6.20816 22.6288 7.04975 21.3759 6.49989 20.7918C5.99994 20.4999 5.337 20.708 5 20.9999C5 20.9999 5 20.9999 4.77507 21.5031Z" fill="white"/>
</g>
</g>
<defs>
<clipPath id="clip0_180_1599">
<rect width="32" height="36.6984" fill="white" transform="translate(0 0.150757)"/>
</clipPath>
</defs>
</svg>
