<svg width="79" height="75" viewBox="0 0 79 75" fill="none" xmlns="http://www.w3.org/2000/svg">
<g id="general">
<path id="Vector" d="M32.1124 49.6228C32.1395 50.231 29.5986 52.1095 27.6525 56.1911C27.1389 57.2588 26.5578 58.7049 26.1523 59.7726C26.1388 59.7861 26.1253 59.7996 26.1118 59.8131C24.2602 60.0564 21.4491 60.624 18.3811 62.1783C16.5296 63.1243 15.2051 64.1109 13.759 65.2327C13.7184 64.3001 13.5428 63.4757 13.0968 63.0027C12.5426 62.4215 11.4614 62.1377 10.3127 62.0161C12.1777 60.0023 14.0023 56.8263 14.9213 51.6636C15.6511 51.4338 16.7053 51.0554 17.9351 50.4877C20.03 49.5147 21.7194 48.3929 22.9222 47.5415C24.071 46.717 24.7603 46.1629 24.8549 46.2846C24.963 46.4062 24.1521 47.2036 23.206 48.6497C22.76 49.3254 22.287 50.1499 21.868 51.1094C21.0031 53.0961 21.3139 53.4611 21.395 53.5286C21.841 53.9746 23.1249 53.2854 24.8008 52.4474C27.5849 51.0554 30.0176 49.8525 31.2475 49.5147C31.68 49.393 31.9638 49.393 32.0584 49.5147C32.0989 49.5552 32.1124 49.5822 32.1124 49.6228Z" fill="#FCF3D5"/>
<path id="Vector_2" d="M66.1028 21.8359C60.6157 27.1878 55.3178 32.7831 49.3577 37.5944C43.4921 42.3247 35.275 49.5417 26.1523 59.7726C26.5578 58.7049 27.1389 57.2588 27.6525 56.1911C29.7338 51.8393 32.4638 50.0012 32.0719 49.5147C31.68 49.0282 28.558 50.5824 24.8008 52.4475C23.1249 53.2854 21.8545 53.9747 21.395 53.5287C21.3139 53.4476 21.0031 53.0827 21.868 51.1095C23.206 48.0821 25.0306 46.4738 24.8549 46.2846C24.6521 46.0548 22.0437 48.5957 17.9352 50.5013C16.7053 51.0689 15.6511 51.4474 14.9213 51.6771C17.0161 49.4742 20.1246 46.2441 23.9223 42.3787C39.6268 26.4445 39.4376 27.9987 50.52 16.8218C52.7635 14.5648 54.7096 12.5375 56.4531 10.74C56.5071 10.7805 56.5477 10.8076 56.5612 10.8346C56.9126 11.1184 57.4127 11.632 57.9938 12.2942C58.4263 12.7943 58.9128 13.3754 59.4264 14.0106C60.5211 15.3486 61.7645 16.9164 63.0079 18.403C63.3728 18.8355 63.7377 19.268 64.0891 19.6734C64.7784 20.4708 65.4676 21.2142 66.1028 21.8359Z" fill="#429365"/>
<path id="Vector_3" d="M13.7725 65.2329C13.6914 65.3004 13.5968 65.368 13.5157 65.4356C11.2993 67.1385 9.39363 68.909 6.90686 71.2335C4.12276 73.842 2.6361 75.3692 1.71708 74.9232C1.16296 74.6529 0.933203 73.7338 0.798052 73.1527C0.798052 73.1527 0.527751 72.0985 0.757507 70.9768C1.25756 68.49 6.79874 65.0977 8.97467 63.3002C9.42066 62.9353 9.88018 62.5163 10.3262 62.0298C11.475 62.1514 12.5562 62.4352 13.1103 63.0164C13.5563 63.4759 13.732 64.3003 13.7725 65.2329Z" fill="#429365"/>
<path id="Vector_4" d="M72.7522 15.6325C70.5087 12.5646 65.4541 7.88834 62.7106 4.52309C62.697 4.50958 62.6835 4.48255 62.6565 4.46903C66.3867 0.968633 68.9005 -0.463965 71.8602 0.130698C74.8336 0.725361 77.7393 3.25268 78.2529 6.09084C78.8881 9.59124 75.7256 12.9159 72.7522 15.6325Z" fill="#FCF3D5"/>
<path id="Vector_5" d="M64.0756 19.6601C61.0482 22.1468 56.2368 26.2284 52.9662 29.7423C48.9117 34.0942 36.8968 45.2035 32.0989 49.623C32.0989 49.5824 32.0854 49.5419 32.0584 49.5148C31.9503 49.3932 31.6665 49.4067 31.2475 49.5148C33.0315 47.5146 37.9645 42.014 42.0731 37.4594C45.8302 33.2968 57.2099 23.3632 62.9809 18.3896C63.3593 18.8221 63.7242 19.2546 64.0756 19.6601Z" fill="#DB3B0F"/>
<path id="Vector_6" d="M72.7522 15.6324C70.5087 12.5645 65.4541 7.88827 62.7106 4.52302C62.697 4.5095 62.6835 4.48247 62.6565 4.46896C62.3186 4.04999 61.4672 3.04987 60.7374 3.22557C60.3319 3.32018 60.1021 3.75266 60.0481 3.86078C60.0481 3.86078 59.8183 4.32029 60.2778 6.17185C60.2778 6.17185 59.1561 5.4961 58.2506 5.4961C57.8316 5.4961 57.4667 5.64477 57.2775 6.05022C56.7369 7.22603 58.0208 7.83421 58.3046 7.95584C57.1694 7.52336 56.1152 7.72609 55.7368 8.33426C55.4665 8.75323 55.5881 9.30735 55.6016 9.41547C55.7368 10.0912 56.2098 10.5372 56.4531 10.7399C56.5071 10.7805 56.5477 10.8075 56.5612 10.8346C56.9126 11.1184 57.4127 11.6319 57.9938 12.2942C58.4263 12.7942 58.9128 13.3754 59.4264 14.0106C60.5211 15.3486 61.7645 16.9163 63.0079 18.403C63.3728 18.8355 63.7377 19.2679 64.0891 19.6734C64.7919 20.4843 65.4676 21.2276 66.1028 21.8493C67.4408 23.1603 68.5491 23.9306 69.1572 23.5928C69.4411 23.4306 69.6573 22.9981 69.7519 22.6197C69.9952 21.579 69.1978 20.6465 69.1572 20.6059C69.2113 20.633 71.7927 21.6736 71.7927 20.4843C71.7927 19.2815 71.198 18.4706 71.198 18.4706C72.8469 18.9706 73.4685 18.7679 73.7253 18.4706C74.1308 17.9164 73.6848 16.9163 72.7522 15.6324Z" fill="#EFC12E"/>
<path id="Vector_7" d="M59.4264 13.9973C57.6019 15.8353 54.3718 19.0384 51.912 21.2008C48.6279 24.093 27.1389 44.8521 23.2195 48.6499C24.1656 47.2038 24.99 46.4199 24.8684 46.2847C24.7603 46.1766 24.0845 46.7307 22.9357 47.5417C24.5711 45.4468 29.1121 40.4192 32.1125 37.1756C35.2885 33.7428 52.8175 17.1598 57.9938 12.2673C58.4263 12.7809 58.8993 13.3621 59.4264 13.9973Z" fill="#DB3B0F"/>
</g>
</svg>
