<svg width="97" height="94" viewBox="0 0 97 94" fill="none" xmlns="http://www.w3.org/2000/svg">
<path d="M14.1314 79.9404C6.57624 72.8824 0.440148 63.4224 0.0522813 53.2294C-0.255549 45.1154 0.781853 36.8734 3.88889 29.3384C10.1512 14.1524 25.1528 2.7524 41.7787 0.444404C58.4047 -1.8646 76.032 4.9624 86.5722 17.7044C97.1123 30.4464 98.5508 48.1424 94.5891 64.0474C87.5192 92.4414 41.2626 105.287 14.1314 79.9404Z" fill="#E7F2EC"/>
<path d="M40.9523 48.3488L45.7538 42.5063C47.8478 44.1017 49.6927 44.9904 51.2884 45.1723C52.93 45.3501 54.3458 44.715 55.5359 43.2668L55.9668 42.7425C56.8286 41.6938 57.1779 40.6214 57.0147 39.5252C56.8515 38.4289 56.2363 37.4423 55.1693 36.5654C54.026 35.6258 52.8217 35.2008 51.5563 35.2903C50.3368 35.3758 49.1564 35.828 48.0152 36.647L45.2917 31.648C46.1565 31.0619 47.1023 30.5843 48.1293 30.2151C49.1562 29.846 50.2384 29.6687 51.3758 29.6831C52.5337 29.6726 53.7288 29.9017 54.9609 30.3706C56.2136 30.8144 57.4751 31.5583 58.7455 32.6023C60.0412 33.6671 61.056 34.8148 61.7898 36.0454C62.5442 37.251 63.0128 38.4936 63.1956 39.7732C63.3989 41.0279 63.3242 42.2842 62.9715 43.542C62.6187 44.7999 61.9807 45.9906 61.0574 47.1142C60.1545 48.2128 59.1535 49.0424 58.0542 49.6031C57.0009 50.1597 55.8899 50.5016 54.7212 50.6288C53.5731 50.731 52.4284 50.6478 51.2871 50.3792C50.1663 50.0856 49.1125 49.6587 48.1255 49.0986L45.6017 52.1697L40.9523 48.3488ZM35.9898 59.2041C34.9228 58.3272 34.3531 57.4407 34.2807 56.5447C34.2084 55.6486 34.4903 54.8136 35.1264 54.0395L35.7419 53.2905C36.378 52.5165 37.1426 52.0782 38.0357 51.9755C38.9288 51.8729 39.9089 52.26 40.976 53.1369C42.0684 54.0347 42.6508 54.9317 42.7232 55.8277C42.7955 56.7238 42.5136 57.5588 41.8775 58.3328L41.262 59.0819C40.6259 59.8559 39.8613 60.2942 38.9682 60.3969C38.0751 60.4995 37.0823 60.1019 35.9898 59.2041Z" fill="white"/>
</svg>
