<svg width="124" height="125" viewBox="0 0 124 125" fill="none" xmlns="http://www.w3.org/2000/svg">
<path d="M101.145 89.8575C107.333 93.3192 116.326 92.1111 118.806 84.2688C121.15 76.858 115.404 70.7746 108.713 69.7672C109.274 66.2916 109.533 62.7612 109.481 59.2476C109.317 48.0328 103.535 32.2612 90.2959 22.2259C75.7576 11.2051 54.8355 12.096 38.3718 20.2426C32.0889 23.3517 26.1475 27.5442 21.7332 33.0094C15.562 29.7978 6.87268 31.1103 4.44151 38.7983C2.17377 45.9704 7.48205 51.8985 13.8924 53.1865C13.5582 57.0735 13.7324 61.017 14.3638 64.8452C15.894 74.1223 19.5729 83.0048 24.7709 90.7407C43.9074 119.222 78.1404 116.063 96.9789 95.2777C98.5173 93.5786 99.8994 91.7613 101.145 89.8575ZM7.89222 39.815C9.68521 34.5351 15.2683 34.1499 19.5184 36.0511C19.2219 36.5093 18.9361 36.975 18.661 37.4483C16.5073 41.1642 15.1138 45.2567 14.3713 49.487C10.0397 48.4829 6.17465 44.8741 7.89222 39.815ZM108.007 73.4148C112.669 74.1119 117.186 77.8554 115.355 83.2506C113.463 88.8208 107.353 88.9439 103.04 86.6808C105.298 82.5396 106.946 78.0575 108.007 73.4148Z" fill="#A1D169"/>
<path d="M51.7672 69.3408L57.01 57.5616C61.1353 59.1962 64.5404 59.7915 67.2251 59.3475C69.983 58.8755 72.0117 57.1796 73.3112 54.26L73.7817 53.2029C74.7227 51.0887 74.8168 49.1737 74.0639 47.4579C73.3111 45.7421 71.8694 44.4155 69.7389 43.478C67.4562 42.4736 65.3022 42.3385 63.2769 43.0727C61.3248 43.7788 59.5992 45.0662 58.1002 46.9349L51.4373 40.0301C52.5884 38.6705 53.92 37.4505 55.4321 36.3702C56.9442 35.2898 58.6315 34.4972 60.4941 33.9924C62.379 33.4373 64.4309 33.2566 66.6498 33.4504C68.8911 33.5938 71.2799 34.2236 73.8162 35.3396C76.4033 36.4779 78.5687 37.8822 80.3124 39.5524C82.0785 41.1723 83.3946 42.9855 84.2607 44.9919C85.1493 46.948 85.5849 49.0358 85.5675 51.2555C85.5501 53.4751 85.0373 55.7176 84.0291 57.9828C83.0433 60.1977 81.7778 62.0187 80.2327 63.4457C78.7608 64.8447 77.0994 65.9196 75.2487 66.6704C73.4204 67.3709 71.5154 67.7667 69.5337 67.8578C67.5744 67.8986 65.6651 67.6906 63.806 67.2338L61.0501 73.4254L51.7672 69.3408ZM48.4861 89.3874C46.3556 88.4499 45.0324 87.2658 44.5167 85.8349C44.001 84.404 44.0905 82.9084 44.785 81.3479L45.4572 79.8377C46.1518 78.2772 47.205 77.2056 48.6169 76.623C50.0288 76.0403 51.8 76.2177 53.9305 77.1551C56.1118 78.1149 57.4603 79.3102 57.976 80.7411C58.4917 82.1719 58.4022 83.6676 57.7077 85.2281L57.0355 86.7383C56.341 88.2987 55.2877 89.3703 53.8758 89.953C52.4639 90.5357 50.6673 90.3471 48.4861 89.3874Z" fill="white"/>
</svg>
