<svg width="106" height="93" viewBox="0 0 106 93" fill="none" xmlns="http://www.w3.org/2000/svg">
<path d="M26.4099 79.3417C18.1848 75.2315 10.8884 68.9431 8.84227 60.9544C7.2142 54.5942 6.82183 47.8707 8.48047 41.3032C11.8233 28.0661 23.9571 16.1196 39.1113 11.0493C54.2655 5.97902 71.864 7.94177 83.8168 15.9674C95.7696 23.993 100.038 37.7133 98.9639 51.07C97.0475 74.9156 55.9481 94.1031 26.4099 79.3417Z" fill="#F0F3C1"/>
<path d="M50.8961 52.4082L49.0024 45.0868C51.525 44.3342 53.3298 43.3666 54.4166 42.1842C55.5271 40.9623 55.8477 39.4439 55.3783 37.6292L55.2084 36.9722C54.8685 35.6581 54.2075 34.7442 53.2254 34.2305C52.2433 33.7167 51.0837 33.6328 49.7466 33.9786C48.3139 34.3492 47.2611 35.0722 46.5882 36.1476C45.939 37.1834 45.6093 38.4036 45.599 39.8083L39.955 39.0651C39.9906 38.021 40.1617 36.9753 40.4682 35.928C40.7748 34.8806 41.2688 33.9016 41.9504 32.9909C42.6238 32.049 43.5129 31.2181 44.6175 30.4985C45.714 29.7475 47.0581 29.1661 48.65 28.7544C50.2737 28.3344 51.7989 28.1902 53.2256 28.3219C54.6442 28.4223 55.9244 28.7755 57.0662 29.3814C58.1999 29.9561 59.1712 30.7564 59.98 31.7823C60.7889 32.8082 61.3754 34.0251 61.7396 35.433C62.0956 36.8097 62.1765 38.1073 61.9822 39.3259C61.8117 40.505 61.4337 41.6042 60.8482 42.6236C60.2546 43.6117 59.5131 44.4878 58.6238 45.2519C57.7264 45.9848 56.7608 46.585 55.7269 47.0528L56.7223 50.9012L50.8961 52.4082ZM56.7462 62.8121C55.409 63.158 54.3571 63.0963 53.5903 62.627C52.8236 62.1577 52.3147 61.4381 52.0638 60.4682L51.8211 59.5295C51.5702 58.5596 51.6662 57.6835 52.1093 56.9013C52.5523 56.1191 53.4424 55.555 54.7796 55.2091C56.1486 54.855 57.2165 54.9126 57.9832 55.3819C58.75 55.8512 59.2588 56.5708 59.5097 57.5407L59.7525 58.4794C60.0034 59.4493 59.9073 60.3254 59.4643 61.1076C59.0212 61.8898 58.1152 62.458 56.7462 62.8121Z" fill="white"/>
</svg>
