<svg width="92" height="91" viewBox="0 0 92 91" fill="none" xmlns="http://www.w3.org/2000/svg">
<path d="M5.32789 64.844C0.833891 56.078 -1.6401 45.556 1.2319 36.134C3.5179 28.632 7.0419 21.428 12.1829 15.507C22.5459 3.57099 39.4879 -2.22202 55.0059 0.783981C70.5249 3.78898 84.0519 15.441 89.4069 30.313C94.7629 45.185 90.4589 61.78 81.9169 75.08C66.6689 98.821 21.4659 96.323 5.32789 64.844Z" fill="#FEEEEA"/>
<path d="M40.8739 48.0823L44.4781 41.4341C46.8371 42.6027 48.8172 43.1248 50.4183 43.0003C52.0638 42.8631 53.3332 41.9705 54.2266 40.3227L54.5501 39.726C55.197 38.5328 55.3362 37.4135 54.9677 36.3682C54.5992 35.323 53.8079 34.4712 52.5937 33.8129C51.2927 33.1076 50.0296 32.9191 48.8043 33.2474C47.6232 33.5629 46.5502 34.2311 45.5853 35.2519L41.9619 30.8613C42.6996 30.1216 43.5375 29.473 44.4756 28.9155C45.4138 28.358 46.4425 27.9784 47.562 27.7765C48.6968 27.5462 49.9136 27.5442 51.2124 27.7704C52.5266 27.9682 53.9065 28.459 55.3519 29.2426C56.8263 30.042 58.0407 30.976 58.9949 32.0448C59.9646 33.0851 60.6607 34.2161 61.0832 35.4377C61.5211 36.6309 61.6864 37.8785 61.579 39.1805C61.4717 40.4825 61.0715 41.7727 60.3783 43.0512C59.7006 44.3013 58.8754 45.306 57.9026 46.0653C56.9742 46.8118 55.9484 47.3585 54.8252 47.7054C53.7174 48.0238 52.5777 48.1596 51.4061 48.1126C50.25 48.0372 49.1342 47.8183 48.0589 47.4559L46.1644 50.9505L40.8739 48.0823ZM38.0637 59.6826C36.8495 59.0244 36.1218 58.2622 35.8806 57.3962C35.6393 56.5302 35.7575 55.6568 36.2349 54.7761L36.697 53.9238C37.1745 53.043 37.8419 52.4674 38.6993 52.197C39.5566 51.9266 40.5924 52.1205 41.8066 52.7788C43.0497 53.4527 43.7919 54.2227 44.0331 55.0887C44.2743 55.9547 44.1562 56.8281 43.6787 57.7088L43.2166 58.5611C42.7392 59.4419 42.0717 60.0175 41.2144 60.2879C40.3571 60.5583 39.3068 60.3566 38.0637 59.6826Z" fill="white"/>
</svg>
