<svg width="131" height="136" viewBox="0 0 131 136" fill="none" xmlns="http://www.w3.org/2000/svg">
<path d="M111.845 61.1056C118.637 59.4756 124.385 52.5546 121.008 45.1669C117.816 38.1857 109.613 37.6052 104.076 41.3638C102.188 38.4511 100.043 35.7012 97.6835 33.172C90.152 25.0995 75.5195 17.4748 59.2499 19.0432C41.383 20.7653 26.7414 35.4661 20.1405 52.467C17.6216 58.9551 16.0673 66.0043 16.4657 72.9566C9.85088 74.7576 4.39278 81.5508 7.70398 88.7932C10.7931 95.5494 18.5751 96.31 24.0929 92.9447C26.4184 96.0053 29.1515 98.7658 32.1412 101.135C39.3862 106.877 47.9347 110.887 56.8312 113.041C89.5851 120.971 112.417 95.6757 112.394 67.8583C112.391 65.5853 112.196 63.3311 111.845 61.1056ZM10.8878 87.2176C8.70363 82.1609 12.5133 78.1304 16.8637 76.6634C16.9507 77.1968 17.0504 77.7285 17.163 78.2587C18.051 82.4164 19.7413 86.3384 21.9965 89.9237C18.1797 92.1001 12.981 92.0625 10.8878 87.2176ZM105.973 44.4997C109.828 41.8774 115.59 41.5749 117.822 46.7417C120.127 52.0765 115.76 56.2698 111.125 57.5149C110.031 52.9771 108.269 48.5994 105.973 44.4997Z" fill="#E7F2EC"/>
<path d="M66.5837 77.1958L62.091 68.3054C65.0987 66.6552 67.1288 64.9235 68.1814 63.1103C69.2531 61.24 69.2322 59.203 68.1186 56.9994L67.7154 56.2015C66.9091 54.6058 65.8061 53.6111 64.4066 53.2173C63.0072 52.8235 61.5028 53.0299 59.8935 53.8364C58.1693 54.7006 57.0299 55.9144 56.4755 57.4779C55.9401 58.9842 55.8649 60.6408 56.2498 62.4478L48.8329 63.0223C48.5826 61.6717 48.5047 60.2823 48.5993 58.854C48.6939 57.4257 49.0473 56.0344 49.6594 54.6801C50.2524 53.2878 51.152 51.9798 52.3585 50.7562C53.5457 49.4946 55.0972 48.3837 57.013 47.4235C58.9671 46.4442 60.8736 45.8458 62.7326 45.6284C64.5723 45.3729 66.307 45.4797 67.9365 45.9486C69.5469 46.3796 71.0138 47.1443 72.3372 48.2428C73.6606 49.3413 74.7543 50.7454 75.6183 52.4551C76.4631 54.1268 76.9341 55.7716 77.0313 57.3894C77.1476 58.95 76.9765 60.4642 76.5177 61.9321C76.0398 63.3621 75.3414 64.6882 74.4225 65.9106C73.4844 67.095 72.4215 68.1276 71.234 69.0085L73.5955 73.6817L66.5837 77.1958ZM77.0012 88.9735C75.3919 89.7801 74.0313 89.9858 72.9193 89.5908C71.8073 89.1958 70.9537 88.4094 70.3586 87.2316L69.7826 86.0918C69.1874 84.914 69.0618 83.7628 69.4058 82.638C69.7499 81.5133 70.7265 80.5477 72.3358 79.7412C73.9834 78.9154 75.3632 78.7001 76.4751 79.0951C77.5871 79.4901 78.4407 80.2765 79.0359 81.4543L79.6119 82.5941C80.2071 83.7719 80.3326 84.9231 79.9886 86.0479C79.6446 87.1726 78.6488 88.1478 77.0012 88.9735Z" fill="white"/>
</svg>
