<svg width="94" height="111" viewBox="0 0 94 111" fill="none" xmlns="http://www.w3.org/2000/svg">
<g id="Group 241">
<g id="Vector 24">
<path fill-rule="evenodd" clip-rule="evenodd" d="M26.5116 68.5408L30.1258 74.9769C32.1848 78.6435 33.5376 82.6604 34.1143 86.8198L34.5119 90.7317C34.6226 91.8201 34.8925 92.8869 35.3131 93.8982L35.4606 94.2529C35.8274 95.1347 36.3346 95.9519 36.9627 96.6728C37.8048 97.6393 38.8465 98.4127 40.016 98.9397L40.7069 99.2511C42.6113 100.109 44.7018 100.471 46.7821 100.303L49.5492 100.079C50.8407 99.9743 52.1207 99.7613 53.3757 99.4422L56.6483 98.6102C58.1125 98.2379 59.5159 97.6607 60.8167 96.8956L62.3959 95.9667C64.3458 94.8198 65.8694 93.0735 66.739 90.9886C67.1066 90.1075 67.3513 89.18 67.4664 88.232L67.7133 86.1989C67.8268 85.2643 67.7977 84.3175 67.6271 83.3908C67.3413 81.8384 66.6657 80.3826 65.6635 79.1592L65.4188 78.8606C64.1747 77.6838 62.5777 76.9474 60.8747 76.7653L59.6734 76.6368C57.7899 76.4353 55.887 76.7066 54.1381 77.4261L54.071 77.4537L47.6995 79.3132C47.106 79.4865 46.5 79.614 45.8867 79.6947L44.0462 79.937C43.1454 80.0555 42.2286 79.9354 41.3879 79.5886C40.1814 79.0909 39.2065 78.1578 38.6584 76.976L36.6942 72.7412L32.7212 65.9865L28.4569 59.9302L20.9128 50.8838L17.3677 46.5566L15.2501 44.1817C13.406 42.1136 11.2017 40.3956 8.74429 39.1114L4.49548 37.3587C3.84348 37.0897 3.11189 37.0891 2.46089 37.3569C1.10178 37.9159 0.457518 39.4691 1.0219 40.8261L1.68154 42.412C2.05657 43.3137 2.72274 44.0653 3.57416 44.5473L5.95063 45.8928C7.03526 46.5069 8.02063 47.2813 8.8731 48.1895L15.4224 55.1672L17.1352 56.7604C19.1507 58.635 20.9676 60.7113 22.5572 62.9562L26.5116 68.5408ZM42.5131 82.158C41.4271 82.1941 40.6789 83.2545 41.0105 84.2874L41.059 84.4383C41.2319 84.9769 41.654 85.4003 42.1931 85.5759L43.2341 85.9148C43.5366 86.0133 43.8499 86.0745 44.1671 86.0971L46.0876 86.2338L50.0415 86.2185C51.6572 86.2123 53.2636 85.9828 54.815 85.5366L56.6047 85.0218C58.519 84.4712 60.3425 83.6466 62.0181 82.5736L62.9284 81.9036C63.4404 81.5267 63.6282 80.8498 63.3839 80.2623C63.2546 79.9515 63.0165 79.698 62.7139 79.549L61.6187 79.0097C60.964 78.6873 60.2425 78.5237 59.5133 78.5321L57.7279 78.5529C56.2685 78.7681 54.8293 79.1004 53.4242 79.5466L52.4519 79.8553L48.5207 80.8939L45.3346 81.6259L42.7749 82.1281C42.6886 82.1451 42.6011 82.1551 42.5131 82.158ZM4.12002 41.0327C3.99085 40.8844 3.90684 40.7025 3.8779 40.5084L3.86894 40.4484C3.80469 40.0175 4.04239 39.5991 4.44564 39.4332C4.64476 39.3513 4.86604 39.3393 5.0733 39.3991L6.40607 39.7839L7.79192 40.3556C8.03509 40.4559 8.2516 40.6113 8.42426 40.8095L8.81856 41.262C9.08782 41.5711 9.11618 42.0213 8.88774 42.3602C8.78828 42.5077 8.6473 42.6225 8.48246 42.6904L8.12786 42.8362C7.87274 42.9412 7.5998 42.9967 7.32359 42.9999L7.21622 43.0012C6.61809 43.0081 6.03357 42.8196 5.552 42.4644L5.34555 42.3121C5.13942 42.1601 4.95058 41.986 4.78242 41.7929L4.12002 41.0327Z" fill="#CED6D1"/>
<path d="M42.5131 82.158C41.4271 82.1941 40.6789 83.2545 41.0105 84.2874L41.059 84.4383C41.2319 84.9769 41.654 85.4003 42.1931 85.5759L43.2341 85.9148C43.5366 86.0133 43.8499 86.0745 44.1671 86.0971L46.0876 86.2338L50.0415 86.2185C51.6572 86.2123 53.2636 85.9828 54.815 85.5366L56.6047 85.0218C58.519 84.4712 60.3425 83.6466 62.0181 82.5736L62.9284 81.9036C63.4404 81.5267 63.6282 80.8498 63.3839 80.2623C63.2546 79.9515 63.0165 79.698 62.7139 79.549L61.6187 79.0097C60.964 78.6873 60.2425 78.5237 59.5133 78.5321L57.7279 78.5529C56.2685 78.7681 54.8293 79.1004 53.4242 79.5466L52.4519 79.8553L48.5207 80.8939L45.3346 81.6259L42.7749 82.1281C42.6886 82.1451 42.6011 82.1551 42.5131 82.158Z" fill="#9CACA3"/>
</g>
<g id="Group 133">
<rect id="Rectangle 91" x="34.2041" width="2.21657" height="16.5144" rx="1.10829" fill="#F2CD58"/>
<rect id="Rectangle 92" x="27" y="9.35814" width="2.20192" height="16.6243" rx="1.10096" transform="rotate(-90 27 9.35814)" fill="#F2CD58"/>
<rect id="Rectangle 93" width="2.20926" height="16.5694" rx="1.10463" transform="matrix(0.709448 -0.704758 0.709448 0.704758 28.6509 3.19705)" fill="#F2CD58"/>
<rect id="Rectangle 94" width="2.20926" height="16.5694" rx="1.10463" transform="matrix(0.709448 0.704758 -0.709448 0.704758 40.418 1.65144)" fill="#F2CD58"/>
</g>
<g id="general">
<path id="Vector" d="M45.5735 45.891C47.5895 47.3707 50.4085 49.5018 54.0216 52.489C54.0216 52.489 36.1244 44.2735 36.144 42.3065C36.1629 41.0151 37.994 39.7403 39.263 39.0212C39.4609 39.4322 39.7407 39.8579 40.1001 40.3637C42.4101 43.5853 45.0842 45.5308 45.5735 45.891Z" fill="#13783E"/>
<path id="Vector_2" d="M88.611 43.1053C84.342 51.9823 82.2075 56.4208 77.9244 58.042C74.4816 59.3361 71.3324 58.6562 66.6194 57.6291C60.975 56.3966 56.6982 54.1624 54.0307 52.4903C57.0044 53.3074 60.5551 54.2097 64.6066 55.099C69.5639 56.1796 72.9432 56.732 76.7743 55.4234C76.915 55.3737 77.0342 55.3388 77.1965 55.2742C80.4373 53.9532 82.3947 50.074 86.3112 42.3064C89.2998 36.3797 89.879 33.8192 89.8102 32.5964C90.0528 32.762 90.2465 32.9377 90.4303 33.1678C91.8453 34.9522 90.9781 38.1645 88.611 43.1053Z" fill="#13783E"/>
<path id="Vector_3" d="M53.7427 52.2134C53.8388 52.3057 53.9257 52.3965 54.0143 52.4781C50.4012 49.4909 47.5913 47.3615 45.5662 45.8801C45.0844 45.5306 42.4119 43.5761 40.0853 40.3421C39.726 39.8363 39.4461 39.4106 39.2482 38.9996C39.0503 38.5886 38.9327 38.2015 38.8813 37.7606C38.7115 36.2663 39.4464 34.9161 40.2576 33.8705C40.5956 36.0426 42.4171 38.5383 45.6272 42.8603C48.7254 47.0215 51.6547 50.1483 53.7427 52.2134Z" fill="#E2623F"/>
<path id="Vector_4" d="M86.3055 42.2868C82.389 50.0544 80.4316 53.9336 77.1908 55.2547C77.0285 55.3193 76.9076 55.3632 76.7686 55.4038C72.9284 56.7107 69.5565 56.1691 64.6009 55.0794C60.5494 54.1901 57.0078 53.2895 54.025 52.4707C54.4795 52.5057 54.9248 52.539 55.3702 52.5723C61.7438 53.0541 67.0453 53.3804 71.0438 53.6314C72.0472 53.6995 73.9537 53.8177 75.9404 52.8244C78.2583 51.6655 79.4129 49.6122 79.9773 48.5785C86.3545 36.8534 88.1389 32.5301 88.4268 30.7429C88.8912 30.9297 89.2207 31.1861 89.4815 31.5615C89.6156 31.7546 89.773 32.0269 89.8061 32.5677C89.8733 33.7996 89.2941 36.3601 86.3055 42.2868Z" fill="#E2623F"/>
<path id="Vector_5" d="M88.4233 30.7609C88.5631 29.9416 88.3785 29.6643 88.193 29.4433C87.4669 28.6275 86.5695 28.8037 78.9352 28.9956C77.0461 29.04 75.3383 29.0702 73.8481 29.0927C72.9516 29.1095 72.142 29.1138 71.416 29.1237C71.3779 29.1263 71.3398 29.1288 71.3034 29.1222C70.8696 29.1285 70.4648 29.1307 70.1071 29.132C70.0632 29.0114 70.0194 28.8909 69.9755 28.7704C67.656 22.6571 66.2268 19.9694 66.2268 19.9694C64.777 17.2405 64.0301 15.8674 62.9737 15.4707C60.8022 14.6385 58.3446 16.5135 53.9094 20.0027C41.2537 29.9495 40.3547 30.9604 40.2233 32.8697C40.2002 33.2033 40.2135 33.5435 40.2739 33.8828C40.6119 36.0549 42.4335 38.5505 45.6435 42.8726C48.7252 47.0215 51.6545 50.1482 53.7408 52.2224C53.8369 52.3147 53.9238 52.4055 54.0124 52.4871C54.4669 52.522 54.9123 52.5554 55.3577 52.5887C61.7313 53.0705 67.0328 53.3967 71.0313 53.6478C72.0346 53.7159 73.9412 53.8341 75.9279 52.8408C78.2457 51.6819 79.4003 49.6285 79.9648 48.5948C86.3511 36.8714 88.1263 32.5465 88.4233 30.7609Z" fill="white"/>
<path id="Vector_6" d="M71.3032 29.1221C68.7688 32.2969 66.2343 35.4717 63.7072 38.6572C63.7072 38.6572 59.0457 46.7973 58.0533 48.27C57.4483 49.165 56.2291 51.1598 55.3666 52.5902C54.9213 52.5569 54.4759 52.5236 54.0214 52.4887C53.9345 52.3979 53.8459 52.3163 53.7498 52.2239C54.6123 51.2064 55.8829 49.6524 57.1882 47.9077C60.4676 43.5347 61.5501 40.7927 64.0166 36.8551C65.2739 34.8577 67.2024 32.0148 69.9737 28.7794C70.0176 28.9 70.0615 29.0205 70.1054 29.141C70.4737 29.1322 70.8695 29.1285 71.3032 29.1221Z" fill="#13783E"/>
<path id="Vector_7" d="M59.8762 18.5345C59.8762 18.5345 59.8904 20.1604 61.4155 21.9083C62.9406 23.6561 66.5027 29.9182 66.5027 29.9182L67.7062 28.371L61.3355 17.2867L59.8762 18.5345Z" fill="#B5C1BA"/>
<path id="Vector_8" d="M57.6364 20.1957C57.6364 20.1957 61.0221 25.9288 62.3973 27.415C63.7725 28.9013 65.4864 31.3682 65.4864 31.3682L64.758 31.9595C64.758 31.9595 60.3832 27.6809 59.7092 26.321C59.0244 24.9684 56.5545 21.0236 56.5545 21.0236L57.6364 20.1957Z" fill="#B5C1BA"/>
<path id="Vector_9" d="M54.6311 22.4972C54.6311 22.4972 58.8639 30.2407 60.1322 31.126C61.4006 32.0113 62.8231 34.7353 62.8231 34.7353L62.0864 35.7849C62.0864 35.7849 60.1374 33.0599 57.8563 29.7309C55.5752 26.4018 53.6576 22.8849 53.6576 22.8849L54.6311 22.4972Z" fill="#B5C1BA"/>
<path id="Vector_10" d="M51.2824 25.6472C51.2824 25.6472 54.8055 31.6583 56.1633 32.6723C57.5211 33.6863 60.6632 37.5551 60.6632 37.5551L59.665 39.2144L50.1773 26.6023L51.2824 25.6472Z" fill="#B5C1BA"/>
<path id="Vector_11" d="M47.2075 28.1414C47.2075 28.1414 49.0688 30.6254 50.3496 32.0103C52.7018 34.5358 53.7243 35.5832 55.1749 37.6367C55.3852 37.9279 55.8902 38.6663 56.6487 39.6662C57.3309 40.5678 57.9154 41.283 58.3013 41.7466C57.8883 42.4135 57.4769 43.0713 57.0639 43.7382C55.1787 41.7472 53.2313 39.5292 51.2674 37.0924C49.1959 34.5236 47.376 32.0189 45.7763 29.6477C46.2539 29.1426 46.7315 28.6374 47.2075 28.1414Z" fill="#B5C1BA"/>
<path id="Vector_12" d="M67.3712 37.8535C67.3712 37.8535 64.6233 42.6132 63.7923 43.7678C62.9505 44.9298 61.123 48.3539 61.123 48.3539C61.123 48.3539 67.2059 47.6949 68.7598 48.0968C70.3137 48.4986 76.3437 48.44 76.3437 48.44L78.2258 44.3032L80.5954 40.2261L67.3729 37.8445L67.3712 37.8535ZM76.6239 44.0616L75.1647 47.2706C75.1647 47.2706 70.4817 47.3184 69.2779 47.0078C68.0742 46.6971 63.3448 47.2058 63.3448 47.2058C63.3448 47.2058 64.761 44.5428 65.4132 43.6469C66.0671 42.7419 68.1967 39.0532 68.1967 39.0532L78.4688 40.9034L76.6239 44.0616Z" fill="#B5C1BA"/>
<path id="Vector_13" d="M68.9066 34.8461C68.9066 34.8461 74.6743 35.9694 76.2373 36.1665C77.8003 36.3635 83.6259 37.1689 83.6259 37.1689L84.4643 35.509C84.4643 35.509 81.2215 34.6715 79.6197 34.6363C78.0178 34.6012 69.9065 33.4873 69.9065 33.4873L68.9066 34.8461Z" fill="#B5C1BA"/>
<path id="Vector_14" d="M71.1794 31.4552C71.1794 31.4552 74.8692 31.904 75.9975 31.8539C77.1259 31.8038 85.695 33.1408 85.695 33.1408L86.1113 32.2493C86.1113 32.2493 85.502 32.4962 84.3728 32.2928C83.2436 32.0894 80.438 31.5371 79.5 31.3682C78.5621 31.1992 71.3019 30.7829 71.3019 30.7829L71.1794 31.4552Z" fill="#B5C1BA"/>
</g>
</g>
</svg>
