<svg width="327" height="61" viewBox="0 0 327 61" fill="none" xmlns="http://www.w3.org/2000/svg">
<rect y="36" width="281" height="6" rx="3" fill="#E6EAE8"/>
<rect x="50" y="36" width="118" height="6" rx="3" fill="#13783E"/>
<g filter="url(#filter0_d_1133_13962)">
<path d="M170 39C170 45.6274 164.627 51 158 51C151.373 51 146 45.6274 146 39C146 32.3726 151.373 27 158 27C164.627 27 170 32.3726 170 39Z" fill="#13783E" stroke="white" stroke-width="2"/>
</g>
<g filter="url(#filter1_d_1133_13962)">
<path d="M75 39C75 45.6274 69.6274 51 63 51C56.3726 51 51 45.6274 51 39C51 32.3726 56.3726 27 63 27C69.6274 27 75 32.3726 75 39Z" fill="#13783E" stroke="white" stroke-width="2"/>
</g>
<path d="M3.6 56.144C2.6 56.144 1.868 55.764 1.404 55.004C0.948 54.244 0.72 53.18 0.72 51.812C0.72 50.444 0.948 49.38 1.404 48.62C1.868 47.86 2.6 47.48 3.6 47.48C4.6 47.48 5.328 47.86 5.784 48.62C6.248 49.38 6.48 50.444 6.48 51.812C6.48 53.18 6.248 54.244 5.784 55.004C5.328 55.764 4.6 56.144 3.6 56.144ZM3.6 55.268C3.928 55.268 4.208 55.2 4.44 55.064C4.672 54.928 4.86 54.736 5.004 54.488C5.148 54.24 5.252 53.948 5.316 53.612C5.388 53.276 5.424 52.904 5.424 52.496V51.128C5.424 50.72 5.388 50.348 5.316 50.012C5.252 49.676 5.148 49.384 5.004 49.136C4.86 48.888 4.672 48.696 4.44 48.56C4.208 48.424 3.928 48.356 3.6 48.356C3.272 48.356 2.992 48.424 2.76 48.56C2.528 48.696 2.34 48.888 2.196 49.136C2.052 49.384 1.944 49.676 1.872 50.012C1.808 50.348 1.776 50.72 1.776 51.128V52.496C1.776 52.904 1.808 53.276 1.872 53.612C1.944 53.948 2.052 54.24 2.196 54.488C2.34 54.736 2.528 54.928 2.76 55.064C2.992 55.2 3.272 55.268 3.6 55.268Z" fill="#9CACA3"/>
<path d="M56.656 16H49.072V14.272L52.64 11.088C53.2053 10.576 53.6373 10.0907 53.936 9.632C54.2453 9.16267 54.4 8.672 54.4 8.16V7.952C54.4 7.408 54.2347 6.98133 53.904 6.672C53.584 6.36267 53.1467 6.208 52.592 6.208C52.2827 6.208 52.0107 6.256 51.776 6.352C51.552 6.43733 51.3547 6.56 51.184 6.72C51.0133 6.88 50.8693 7.06667 50.752 7.28C50.6453 7.49333 50.56 7.72267 50.496 7.968L48.912 7.36C49.0293 7.008 49.1893 6.672 49.392 6.352C49.5947 6.02133 49.8507 5.728 50.16 5.472C50.4693 5.216 50.832 5.01333 51.248 4.864C51.6747 4.71467 52.1707 4.64 52.736 4.64C53.3013 4.64 53.808 4.72533 54.256 4.896C54.704 5.056 55.0773 5.28533 55.376 5.584C55.6853 5.872 55.92 6.21867 56.08 6.624C56.24 7.02933 56.32 7.472 56.32 7.952C56.32 8.4 56.2507 8.816 56.112 9.2C55.9733 9.584 55.7813 9.94667 55.536 10.288C55.2907 10.6293 55.0027 10.9547 54.672 11.264C54.352 11.5733 54.0107 11.888 53.648 12.208L51.024 14.464H56.656V16ZM62.7137 16.192C62.0204 16.192 61.4177 16.064 60.9057 15.808C60.3937 15.5413 59.9724 15.1627 59.6417 14.672C59.3111 14.1813 59.0657 13.5787 58.9057 12.864C58.7457 12.1493 58.6657 11.3333 58.6657 10.416C58.6657 9.50933 58.7457 8.69867 58.9057 7.984C59.0657 7.25867 59.3111 6.65067 59.6417 6.16C59.9724 5.66933 60.3937 5.296 60.9057 5.04C61.4177 4.77333 62.0204 4.64 62.7137 4.64C64.1004 4.64 65.1191 5.14667 65.7698 6.16C66.4311 7.17333 66.7618 8.592 66.7618 10.416C66.7618 12.24 66.4311 13.6587 65.7698 14.672C65.1191 15.6853 64.1004 16.192 62.7137 16.192ZM62.7137 14.656C63.0978 14.656 63.4231 14.5813 63.6898 14.432C63.9671 14.272 64.1911 14.048 64.3618 13.76C64.5324 13.472 64.6551 13.1307 64.7298 12.736C64.8044 12.3307 64.8418 11.8827 64.8418 11.392V9.44C64.8418 8.94933 64.8044 8.50667 64.7298 8.112C64.6551 7.70667 64.5324 7.36 64.3618 7.072C64.1911 6.784 63.9671 6.56533 63.6898 6.416C63.4231 6.256 63.0978 6.176 62.7137 6.176C62.3297 6.176 61.9991 6.256 61.7217 6.416C61.4551 6.56533 61.2364 6.784 61.0657 7.072C60.8951 7.36 60.7724 7.70667 60.6977 8.112C60.6231 8.50667 60.5857 8.94933 60.5857 9.44V11.392C60.5857 11.8827 60.6231 12.3307 60.6977 12.736C60.7724 13.1307 60.8951 13.472 61.0657 13.76C61.2364 14.048 61.4551 14.272 61.7217 14.432C61.9991 14.5813 62.3297 14.656 62.7137 14.656ZM72.6275 16.192C71.9342 16.192 71.3315 16.064 70.8195 15.808C70.3075 15.5413 69.8862 15.1627 69.5555 14.672C69.2248 14.1813 68.9795 13.5787 68.8195 12.864C68.6595 12.1493 68.5795 11.3333 68.5795 10.416C68.5795 9.50933 68.6595 8.69867 68.8195 7.984C68.9795 7.25867 69.2248 6.65067 69.5555 6.16C69.8862 5.66933 70.3075 5.296 70.8195 5.04C71.3315 4.77333 71.9342 4.64 72.6275 4.64C74.0142 4.64 75.0328 5.14667 75.6835 6.16C76.3448 7.17333 76.6755 8.592 76.6755 10.416C76.6755 12.24 76.3448 13.6587 75.6835 14.672C75.0328 15.6853 74.0142 16.192 72.6275 16.192ZM72.6275 14.656C73.0115 14.656 73.3368 14.5813 73.6035 14.432C73.8808 14.272 74.1048 14.048 74.2755 13.76C74.4462 13.472 74.5688 13.1307 74.6435 12.736C74.7182 12.3307 74.7555 11.8827 74.7555 11.392V9.44C74.7555 8.94933 74.7182 8.50667 74.6435 8.112C74.5688 7.70667 74.4462 7.36 74.2755 7.072C74.1048 6.784 73.8808 6.56533 73.6035 6.416C73.3368 6.256 73.0115 6.176 72.6275 6.176C72.2435 6.176 71.9128 6.256 71.6355 6.416C71.3688 6.56533 71.1502 6.784 70.9795 7.072C70.8088 7.36 70.6862 7.70667 70.6115 8.112C70.5368 8.50667 70.4995 8.94933 70.4995 9.44V11.392C70.4995 11.8827 70.5368 12.3307 70.6115 12.736C70.6862 13.1307 70.8088 13.472 70.9795 13.76C71.1502 14.048 71.3688 14.272 71.6355 14.432C71.9128 14.5813 72.2435 14.656 72.6275 14.656Z" fill="#13783E"/>
<path d="M151.128 6.4H146.168L145.88 10.352H145.992C146.12 10.128 146.253 9.93067 146.392 9.76C146.531 9.57867 146.691 9.424 146.872 9.296C147.053 9.168 147.261 9.072 147.496 9.008C147.731 8.93333 148.008 8.896 148.328 8.896C148.808 8.896 149.251 8.976 149.656 9.136C150.072 9.296 150.429 9.52533 150.728 9.824C151.037 10.1227 151.277 10.4907 151.448 10.928C151.619 11.3547 151.704 11.84 151.704 12.384C151.704 12.9387 151.613 13.4507 151.432 13.92C151.261 14.3893 151.005 14.7947 150.664 15.136C150.323 15.4667 149.901 15.728 149.4 15.92C148.909 16.1013 148.349 16.192 147.72 16.192C147.219 16.192 146.776 16.1333 146.392 16.016C146.008 15.9093 145.667 15.7653 145.368 15.584C145.08 15.392 144.824 15.1787 144.6 14.944C144.387 14.6987 144.195 14.448 144.024 14.192L145.336 13.152C145.475 13.376 145.619 13.5787 145.768 13.76C145.917 13.9413 146.088 14.1013 146.28 14.24C146.472 14.3787 146.685 14.4853 146.92 14.56C147.165 14.6347 147.443 14.672 147.752 14.672C148.413 14.672 148.92 14.4907 149.272 14.128C149.635 13.7653 149.816 13.264 149.816 12.624V12.432C149.816 11.792 149.635 11.2907 149.272 10.928C148.92 10.5653 148.413 10.384 147.752 10.384C147.272 10.384 146.888 10.4747 146.6 10.656C146.312 10.8373 146.067 11.04 145.864 11.264L144.376 11.056L144.792 4.832H151.128V6.4ZM161.042 6.4H156.082L155.794 10.352H155.906C156.034 10.128 156.167 9.93067 156.306 9.76C156.444 9.57867 156.604 9.424 156.786 9.296C156.967 9.168 157.175 9.072 157.41 9.008C157.644 8.93333 157.922 8.896 158.242 8.896C158.722 8.896 159.164 8.976 159.57 9.136C159.986 9.296 160.343 9.52533 160.642 9.824C160.951 10.1227 161.191 10.4907 161.362 10.928C161.532 11.3547 161.618 11.84 161.618 12.384C161.618 12.9387 161.527 13.4507 161.346 13.92C161.175 14.3893 160.919 14.7947 160.578 15.136C160.236 15.4667 159.815 15.728 159.314 15.92C158.823 16.1013 158.263 16.192 157.634 16.192C157.132 16.192 156.69 16.1333 156.306 16.016C155.922 15.9093 155.58 15.7653 155.282 15.584C154.994 15.392 154.738 15.1787 154.514 14.944C154.3 14.6987 154.108 14.448 153.938 14.192L155.25 13.152C155.388 13.376 155.532 13.5787 155.682 13.76C155.831 13.9413 156.002 14.1013 156.194 14.24C156.386 14.3787 156.599 14.4853 156.834 14.56C157.079 14.6347 157.356 14.672 157.666 14.672C158.327 14.672 158.834 14.4907 159.186 14.128C159.548 13.7653 159.73 13.264 159.73 12.624V12.432C159.73 11.792 159.548 11.2907 159.186 10.928C158.834 10.5653 158.327 10.384 157.666 10.384C157.186 10.384 156.802 10.4747 156.514 10.656C156.226 10.8373 155.98 11.04 155.778 11.264L154.29 11.056L154.706 4.832H161.042V6.4ZM167.627 16.192C166.934 16.192 166.331 16.064 165.819 15.808C165.307 15.5413 164.886 15.1627 164.555 14.672C164.225 14.1813 163.979 13.5787 163.819 12.864C163.659 12.1493 163.579 11.3333 163.579 10.416C163.579 9.50933 163.659 8.69867 163.819 7.984C163.979 7.25867 164.225 6.65067 164.555 6.16C164.886 5.66933 165.307 5.296 165.819 5.04C166.331 4.77333 166.934 4.64 167.627 4.64C169.014 4.64 170.033 5.14667 170.683 6.16C171.345 7.17333 171.675 8.592 171.675 10.416C171.675 12.24 171.345 13.6587 170.683 14.672C170.033 15.6853 169.014 16.192 167.627 16.192ZM167.627 14.656C168.011 14.656 168.337 14.5813 168.603 14.432C168.881 14.272 169.105 14.048 169.275 13.76C169.446 13.472 169.569 13.1307 169.643 12.736C169.718 12.3307 169.755 11.8827 169.755 11.392V9.44C169.755 8.94933 169.718 8.50667 169.643 8.112C169.569 7.70667 169.446 7.36 169.275 7.072C169.105 6.784 168.881 6.56533 168.603 6.416C168.337 6.256 168.011 6.176 167.627 6.176C167.243 6.176 166.913 6.256 166.635 6.416C166.369 6.56533 166.15 6.784 165.979 7.072C165.809 7.36 165.686 7.70667 165.611 8.112C165.537 8.50667 165.499 8.94933 165.499 9.44V11.392C165.499 11.8827 165.537 12.3307 165.611 12.736C165.686 13.1307 165.809 13.472 165.979 13.76C166.15 14.048 166.369 14.272 166.635 14.432C166.913 14.5813 167.243 14.656 167.627 14.656Z" fill="#13783E"/>
<path d="M247.056 56V55.112H249.396V48.368H249.312L247.2 50.336L246.612 49.7L248.832 47.624H250.404V55.112H252.564V56H247.056ZM255.067 54.596C255.323 54.596 255.507 54.664 255.619 54.8C255.739 54.928 255.799 55.096 255.799 55.304V55.472C255.799 55.8 255.703 56.16 255.511 56.552C255.319 56.952 255.051 57.3 254.707 57.596H253.903C254.143 57.34 254.335 57.096 254.479 56.864C254.631 56.64 254.739 56.388 254.803 56.108C254.643 56.068 254.523 55.992 254.443 55.88C254.371 55.768 254.335 55.632 254.335 55.472V55.304C254.335 55.096 254.391 54.928 254.503 54.8C254.623 54.664 254.811 54.596 255.067 54.596ZM260.545 56.144C259.545 56.144 258.813 55.764 258.349 55.004C257.893 54.244 257.665 53.18 257.665 51.812C257.665 50.444 257.893 49.38 258.349 48.62C258.813 47.86 259.545 47.48 260.545 47.48C261.545 47.48 262.273 47.86 262.729 48.62C263.193 49.38 263.425 50.444 263.425 51.812C263.425 53.18 263.193 54.244 262.729 55.004C262.273 55.764 261.545 56.144 260.545 56.144ZM260.545 55.268C260.873 55.268 261.153 55.2 261.385 55.064C261.617 54.928 261.805 54.736 261.949 54.488C262.093 54.24 262.197 53.948 262.261 53.612C262.333 53.276 262.369 52.904 262.369 52.496V51.128C262.369 50.72 262.333 50.348 262.261 50.012C262.197 49.676 262.093 49.384 261.949 49.136C261.805 48.888 261.617 48.696 261.385 48.56C261.153 48.424 260.873 48.356 260.545 48.356C260.217 48.356 259.937 48.424 259.705 48.56C259.473 48.696 259.285 48.888 259.141 49.136C258.997 49.384 258.889 49.676 258.817 50.012C258.753 50.348 258.721 50.72 258.721 51.128V52.496C258.721 52.904 258.753 53.276 258.817 53.612C258.889 53.948 258.997 54.24 259.141 54.488C259.285 54.736 259.473 54.928 259.705 55.064C259.937 55.2 260.217 55.268 260.545 55.268ZM267.98 56.144C266.98 56.144 266.248 55.764 265.784 55.004C265.328 54.244 265.1 53.18 265.1 51.812C265.1 50.444 265.328 49.38 265.784 48.62C266.248 47.86 266.98 47.48 267.98 47.48C268.98 47.48 269.708 47.86 270.164 48.62C270.628 49.38 270.86 50.444 270.86 51.812C270.86 53.18 270.628 54.244 270.164 55.004C269.708 55.764 268.98 56.144 267.98 56.144ZM267.98 55.268C268.308 55.268 268.588 55.2 268.82 55.064C269.052 54.928 269.24 54.736 269.384 54.488C269.528 54.24 269.632 53.948 269.696 53.612C269.768 53.276 269.804 52.904 269.804 52.496V51.128C269.804 50.72 269.768 50.348 269.696 50.012C269.632 49.676 269.528 49.384 269.384 49.136C269.24 48.888 269.052 48.696 268.82 48.56C268.588 48.424 268.308 48.356 267.98 48.356C267.652 48.356 267.372 48.424 267.14 48.56C266.908 48.696 266.72 48.888 266.576 49.136C266.432 49.384 266.324 49.676 266.252 50.012C266.188 50.348 266.156 50.72 266.156 51.128V52.496C266.156 52.904 266.188 53.276 266.252 53.612C266.324 53.948 266.432 54.24 266.576 54.488C266.72 54.736 266.908 54.928 267.14 55.064C267.372 55.2 267.652 55.268 267.98 55.268ZM275.415 56.144C274.415 56.144 273.683 55.764 273.219 55.004C272.763 54.244 272.535 53.18 272.535 51.812C272.535 50.444 272.763 49.38 273.219 48.62C273.683 47.86 274.415 47.48 275.415 47.48C276.415 47.48 277.143 47.86 277.599 48.62C278.063 49.38 278.295 50.444 278.295 51.812C278.295 53.18 278.063 54.244 277.599 55.004C277.143 55.764 276.415 56.144 275.415 56.144ZM275.415 55.268C275.743 55.268 276.023 55.2 276.255 55.064C276.487 54.928 276.675 54.736 276.819 54.488C276.963 54.24 277.067 53.948 277.131 53.612C277.203 53.276 277.239 52.904 277.239 52.496V51.128C277.239 50.72 277.203 50.348 277.131 50.012C277.067 49.676 276.963 49.384 276.819 49.136C276.675 48.888 276.487 48.696 276.255 48.56C276.023 48.424 275.743 48.356 275.415 48.356C275.087 48.356 274.807 48.424 274.575 48.56C274.343 48.696 274.155 48.888 274.011 49.136C273.867 49.384 273.759 49.676 273.687 50.012C273.623 50.348 273.591 50.72 273.591 51.128V52.496C273.591 52.904 273.623 53.276 273.687 53.612C273.759 53.948 273.867 54.24 274.011 54.488C274.155 54.736 274.343 54.928 274.575 55.064C274.807 55.2 275.087 55.268 275.415 55.268Z" fill="#9CACA3"/>
<path d="M298.72 38.784L297.184 40.544V44H295.376V32.832H297.184V38.496H297.248L298.848 36.464L301.856 32.832H303.968L299.984 37.536L304.288 44H302.112L298.72 38.784ZM308.94 44.192C308.343 44.192 307.81 44.0907 307.34 43.888C306.871 43.6853 306.476 43.3973 306.156 43.024C305.836 42.64 305.591 42.1813 305.42 41.648C305.25 41.104 305.164 40.5013 305.164 39.84C305.164 39.1787 305.25 38.5813 305.42 38.048C305.591 37.504 305.836 37.0453 306.156 36.672C306.476 36.288 306.871 35.9947 307.34 35.792C307.81 35.5893 308.343 35.488 308.94 35.488C309.772 35.488 310.455 35.6747 310.988 36.048C311.522 36.4213 311.911 36.9173 312.156 37.536L310.716 38.208C310.599 37.824 310.391 37.52 310.092 37.296C309.804 37.0613 309.42 36.944 308.94 36.944C308.3 36.944 307.815 37.1467 307.484 37.552C307.164 37.9467 307.004 38.464 307.004 39.104V40.592C307.004 41.232 307.164 41.7547 307.484 42.16C307.815 42.5547 308.3 42.752 308.94 42.752C309.452 42.752 309.858 42.6293 310.156 42.384C310.466 42.128 310.711 41.792 310.892 41.376L312.22 42.08C311.943 42.7627 311.527 43.2853 310.972 43.648C310.418 44.0107 309.74 44.192 308.94 44.192ZM320.296 44C319.838 44 319.486 43.872 319.24 43.616C318.995 43.3493 318.846 43.0133 318.792 42.608H318.712C318.552 43.1307 318.259 43.5253 317.832 43.792C317.406 44.0587 316.888 44.192 316.28 44.192C315.416 44.192 314.75 43.968 314.28 43.52C313.822 43.072 313.592 42.4693 313.592 41.712C313.592 40.88 313.891 40.256 314.488 39.84C315.096 39.424 315.982 39.216 317.144 39.216H318.648V38.512C318.648 38 318.51 37.6053 318.232 37.328C317.955 37.0507 317.523 36.912 316.936 36.912C316.446 36.912 316.046 37.0187 315.736 37.232C315.427 37.4453 315.166 37.7173 314.952 38.048L313.912 37.104C314.19 36.6347 314.579 36.2507 315.08 35.952C315.582 35.6427 316.238 35.488 317.048 35.488C318.126 35.488 318.952 35.7387 319.528 36.24C320.104 36.7413 320.392 37.4613 320.392 38.4V42.576H321.273V44H320.296ZM316.776 42.864C317.32 42.864 317.768 42.7467 318.12 42.512C318.472 42.2667 318.648 41.9413 318.648 41.536V40.336H317.176C315.971 40.336 315.368 40.7093 315.368 41.456V41.744C315.368 42.1173 315.491 42.4 315.736 42.592C315.992 42.7733 316.339 42.864 316.776 42.864ZM325.078 44C324.48 44 324.032 43.8507 323.734 43.552C323.446 43.2427 323.302 42.816 323.302 42.272V32.16H325.046V42.576H326.198V44H325.078Z" fill="#6B8375"/>
<defs>
<filter id="filter0_d_1133_13962" x="144" y="26" width="28" height="28" filterUnits="userSpaceOnUse" color-interpolation-filters="sRGB">
<feFlood flood-opacity="0" result="BackgroundImageFix"/>
<feColorMatrix in="SourceAlpha" type="matrix" values="0 0 0 0 0 0 0 0 0 0 0 0 0 0 0 0 0 0 127 0" result="hardAlpha"/>
<feOffset dy="1"/>
<feGaussianBlur stdDeviation="0.5"/>
<feComposite in2="hardAlpha" operator="out"/>
<feColorMatrix type="matrix" values="0 0 0 0 0.807843 0 0 0 0 0.839216 0 0 0 0 0.819608 0 0 0 1 0"/>
<feBlend mode="normal" in2="BackgroundImageFix" result="effect1_dropShadow_1133_13962"/>
<feBlend mode="normal" in="SourceGraphic" in2="effect1_dropShadow_1133_13962" result="shape"/>
</filter>
<filter id="filter1_d_1133_13962" x="49" y="26" width="28" height="28" filterUnits="userSpaceOnUse" color-interpolation-filters="sRGB">
<feFlood flood-opacity="0" result="BackgroundImageFix"/>
<feColorMatrix in="SourceAlpha" type="matrix" values="0 0 0 0 0 0 0 0 0 0 0 0 0 0 0 0 0 0 127 0" result="hardAlpha"/>
<feOffset dy="1"/>
<feGaussianBlur stdDeviation="0.5"/>
<feComposite in2="hardAlpha" operator="out"/>
<feColorMatrix type="matrix" values="0 0 0 0 0.807843 0 0 0 0 0.839216 0 0 0 0 0.819608 0 0 0 1 0"/>
<feBlend mode="normal" in2="BackgroundImageFix" result="effect1_dropShadow_1133_13962"/>
<feBlend mode="normal" in="SourceGraphic" in2="effect1_dropShadow_1133_13962" result="shape"/>
</filter>
</defs>
</svg>
