<svg width="32" height="35" viewBox="0 0 32 35" fill="none" xmlns="http://www.w3.org/2000/svg">
<g id="strawberry">
<path id="Vector" d="M29.9889 31.8917C29.338 32.8779 28.7167 33.4006 28.3025 33.6965C26.6062 34.9292 24.7324 34.9884 23.7265 34.9983C19.7817 35.0574 12.3851 33.1245 5.53098 27.3453C3.14436 25.3334 1.82284 23.6963 1.11277 21.5858C0.767598 20.5799 0.58022 19.5247 0.540771 18.4497C0.590082 18.4793 0.757738 18.5878 0.954979 18.5779C1.74394 18.5483 2.25677 16.6745 3.38105 13.4102C4.23905 10.925 4.42643 10.6094 4.65325 10.6094C5.47181 10.6094 5.30415 14.6627 8.24305 17.5227C8.43043 17.7002 9.78153 19.0217 10.3437 18.6864C10.6494 18.499 10.6198 17.8974 10.3042 16.1223C9.66318 12.493 9.08132 10.3825 9.08132 10.3825C8.36139 7.79868 8.05567 7.12806 8.34167 6.92095C8.6967 6.66454 9.49553 7.49295 12.9374 9.79081C12.9374 9.79081 13.3417 10.067 16.0637 11.3885C16.7244 11.7139 17.5331 12.0887 18.184 11.7632C18.2629 11.7238 18.5588 11.566 18.687 11.2504C18.9039 10.708 18.4799 10.0768 18.2136 9.69219C16.8033 7.65074 16.1031 6.63495 15.1859 5.77695C14.0025 4.65268 13.4108 4.34695 13.5193 3.99192C13.6277 3.63689 14.3082 3.63689 16.5272 3.37061C18.1741 3.17337 19.1604 3.01557 20.0085 2.83806C23.0164 2.20688 23.1644 1.6053 23.1841 1.45737C23.2137 1.25027 23.0953 1.08261 23.0559 1.02344C23.1841 1.05302 23.3123 1.08261 23.4306 1.1122C28.9632 2.59151 30.9751 10.8066 31.626 13.4496C32.1092 15.4319 32.0402 18.4892 31.8824 24.6036C31.8232 26.3295 31.7049 29.298 29.9889 31.8917Z" fill="#AF2F0C"/>
<path id="Vector_2" d="M15.9159 21.5365C15.9257 21.6647 16.0046 22.72 15.5411 22.9172C15.1171 23.0947 14.3774 22.503 14.1013 21.8422C13.6871 20.856 14.1703 19.5246 14.693 19.4556C15.196 19.3866 15.8468 20.5306 15.9159 21.5365Z" fill="#EFC12E"/>
<path id="Vector_3" d="M26.0933 11.5363C26.0835 11.6054 26.0243 11.921 25.7975 12.0196C25.2649 12.2661 24.0519 11.2503 23.7363 10.0274C23.6574 9.72172 23.5588 9.31737 23.7264 9.18917C24.1604 8.87358 26.3004 10.3628 26.0933 11.5363Z" fill="#EFC12E"/>
<path id="Vector_4" d="M25.9553 21.8126C25.9158 22.0986 25.7284 22.5621 25.472 22.5819C24.8606 22.6312 23.973 20.215 24.3675 19.9388C24.6042 19.7712 25.2551 20.3728 25.3044 20.4221C25.5016 20.6095 26.0637 21.1321 25.9553 21.8126Z" fill="#EFC12E"/>
<path id="Vector_5" d="M30.0185 29.1796C29.9594 29.2683 29.7818 29.5642 29.555 29.5445C29.2296 29.5247 29.0422 28.8147 28.9534 28.4399C28.7858 27.7792 28.6872 26.7831 28.983 26.6647C29.0718 26.6253 29.1803 26.7042 29.3479 26.8127C29.7424 27.0789 29.9199 27.4636 29.9988 27.6411C30.0876 27.8383 30.3933 28.5878 30.0185 29.1796Z" fill="#EFC12E"/>
<path id="Vector_6" d="M30.6596 16.6251C30.6201 16.6942 30.4821 16.9111 30.3243 16.9013C30.0777 16.8815 29.9495 16.3589 29.8805 16.0827C29.7523 15.5896 29.6832 14.85 29.9002 14.7711C29.9692 14.7415 30.0481 14.8006 30.1763 14.8795C30.4722 15.0768 30.6004 15.3628 30.6596 15.491C30.7089 15.6291 30.9357 16.1912 30.6596 16.6251Z" fill="#EFC12E"/>
<path id="Vector_7" d="M4.51533 20.1755C4.4956 20.2939 4.31809 21.1913 3.91374 21.2406C3.44036 21.2998 2.72043 20.1657 2.88809 19.2189C2.91767 19.0611 2.99657 18.5877 3.36147 18.4299C3.68692 18.2919 4.02223 18.4891 4.06168 18.5088C4.59423 18.8441 4.60409 19.7021 4.51533 20.1755Z" fill="#EFC12E"/>
<path id="Vector_8" d="M25.4524 4.08066C25.4918 4.33707 25.4327 4.71183 25.2255 4.79073C24.9198 4.90907 24.2887 4.34693 24.2295 3.72562C24.2196 3.67631 24.1802 3.24238 24.3873 3.14376C24.6733 3.00569 25.3735 3.46921 25.4524 4.08066Z" fill="#EFC12E"/>
<path id="Vector_9" d="M16.5568 5.04716C16.2708 5.19509 15.4128 4.53433 15.3635 3.74537C15.3635 3.70592 15.3537 3.61716 15.3635 3.50868C15.5903 3.47909 15.8468 3.45937 16.1229 3.41992C16.399 3.67634 16.6456 4.09054 16.6752 4.52447C16.6949 4.66254 16.7048 4.96827 16.5568 5.04716Z" fill="#EFC12E"/>
<path id="Vector_10" d="M13.2433 29.7714C13.332 29.9686 13.5391 30.4223 13.4011 30.5406C13.1545 30.7576 11.7935 30.0179 11.8429 29.2585C11.8527 29.0613 11.9612 28.8147 12.1486 28.7556C12.5036 28.6372 13.0066 29.2684 13.2433 29.7714Z" fill="#EFC12E"/>
<path id="Vector_11" d="M15.3635 3.50864C15.5903 3.47905 15.8468 3.45933 16.1229 3.41988C16.2412 3.41002 16.3695 3.39029 16.4977 3.38043C18.1446 3.18319 19.1308 3.0254 19.979 2.84788C22.9869 2.21671 23.1348 1.61512 23.1546 1.46719C23.1841 1.26009 23.0658 1.09243 23.0263 1.03326C22.2768 -0.110738 17.8488 -0.495359 13.253 0.875468C11.6455 1.35871 9.04194 2.34492 6.38904 4.40609C5.24504 5.30354 3.46987 6.70395 1.9807 9.1596C1.9807 9.1596 0.235117 12.0492 0.00828948 16.6055C-0.0508829 17.8185 0.215392 18.282 0.530978 18.4793C0.580288 18.5088 0.747944 18.6173 0.945186 18.6075C1.73415 18.5779 2.24698 16.7041 3.37125 13.4397C4.22925 10.9545 4.41663 10.6389 4.64346 10.6389C5.46201 10.6389 5.29435 14.6922 8.23325 17.5522C8.42063 17.7297 9.77173 19.0513 10.3339 18.7159C10.6396 18.5286 10.61 17.927 10.2944 16.1518C10.0676 14.8599 9.85063 13.7652 9.65339 12.8875C9.53504 12.3253 9.42656 11.8618 9.3378 11.4871C9.17015 10.7868 9.07153 10.4219 9.07153 10.4219C8.35159 7.83809 8.04587 7.16747 8.33187 6.96036C8.6869 6.70395 9.48573 7.53236 12.9276 9.83022C12.9276 9.83022 13.3319 10.1064 16.0539 11.4279C16.7146 11.7533 17.5233 12.1281 18.1742 11.8026C18.2531 11.7632 18.549 11.6054 18.6772 11.2898C18.8941 10.7474 18.4701 10.1162 18.2038 9.7316C16.7935 7.69016 16.0933 6.67436 15.1761 5.81636C13.9927 4.69209 13.401 4.38636 13.5095 4.03133C13.5884 3.70588 14.042 3.65657 15.3635 3.50864Z" fill="#13783E"/>
<path id="Vector_12" d="M10.1269 12.9367C10.0578 12.9959 9.87044 12.9663 9.65347 12.8677C9.53513 12.3056 9.42665 11.842 9.33789 11.4673C9.58444 11.6054 9.85072 11.9801 9.99865 12.2858C10.0677 12.4535 10.2452 12.8283 10.1269 12.9367Z" fill="#EFC12E"/>
<path id="Vector_13" d="M22.4838 31.1323C22.4937 31.1816 22.5824 31.6846 22.326 31.8522C22.0006 32.0791 21.2215 31.6648 20.8665 31.0534C20.6594 30.6885 20.5016 30.0771 20.7382 29.8995C21.0933 29.6333 22.326 30.2447 22.4838 31.1323Z" fill="#EFC12E"/>
<path id="Vector_14" d="M17.1584 14.3175C17.1683 14.5641 17.0894 14.998 16.8625 15.067C16.5371 15.1656 15.9454 14.5049 15.8172 13.7948C15.7678 13.5384 15.7383 12.9861 15.9651 12.8875C16.2905 12.7593 17.1485 13.4891 17.1584 14.3175Z" fill="#EFC12E"/>
</g>
</svg>
